/* XPM */
static const char * fltk_xpm[] = {
"64 64 5 1",
" 	c #background",
"+	c #000000000000",
"@	c #ffd100",
"#	c #FFFF00000000",
"$	c #0000FF",
"                                                                ",
"                   ++++++++++++++++++++++++++                   ",
"              +++++++++++++++++++++++++++++++++++++             ",
"        ++++++++++++@@@@@@@@@@@@@@@@@@@@@@@@++++++++++++        ",
"        ++++++@@@@@@@+++@@+++@@@@@@@@+++@@@@@@@@@@++++++        ",
"        ++@@@@@@@@@@++@++@@++@@@@+@@@@++@@@@@@@@@@@@@@++        ",
"        ++@@@@@@@@@@++@++@@++@@@++@@@@++@+++@@@@@@@@@@++        ",
"        ++@@@@@@@@@@++@@@@@++@@+++++@@++@@+@@@@@@@@@@@++        ",
"        ++@@@@@@@@@+++++@@@++@@@++@@@@++@+@@@@@@@@@@@@++        ",
"        ++@@@@@@@@@@++@@@@@++@@@++@@@@++++@@@@@@@@@@@@++        ",
"        ++@@@@@@@@@@++@@@@@++@@@++@@@@++@++@@@@@@@@@@@++        ",
"        ++@@@@@@@@@@++@@@@@++@@@++@+@@++@@++@@@@@@@@@@++        ",
"        ++@@@@@@@@@++++@@@++++@@@++@@++++@@++@@@@@@@@@++        ",
"        ++@@@@@@@@@@@@@@@@@@@@@@@@@@@@@@@@@@@@@@@@@@@@++        ",
"        ++@@@@@@@@@++++++++++++++++++++++++++@@@@@@@@@++        ",
"        ++@@@+++++++@@@@@@@@@@@+++++++++++++++++++@@@@++        ",
"        ++++++@@@@@@@@@@@@@@@@@+++++++++++++++++++++++++        ",
"        ++@@@@@@@@@@@@@@@@@@@@@+++++++++++++++++++++++++        ",
"        ++@@@@@@@@@@@@@@@@@@@@@+++++++++++++++++++++++++        ",
"        ++@@@@#@@@@@#@@@@@#@@@@++$$$$$$$$$$$$$$$$$$$$$++        ",
"        ++@@@###@@@###@@@###@@@++$$$$$$$$$$$$$$$$$$$$$++        ",
"        ++@@@@#@@@@@#@@@@@#@@@@++$$$$$$$$$$$$$$$$$$$$$++        ",
"        ++@@@@@@@@@@@@@@@@@@@@@++$$$$$$$$$$$$$$$$$$$$$++        ",
"        ++@@@@@@@@@@@@@@@@@@@@@++$$$$$$$$$$$$$$$$$$$$$++        ",
"        ++@@@@@@@@@@@@@@++++++++++++++++++++++++++++++++        ",
"        ++@#@@@@@#@@@@@@+@@@@@@@@@@@@@@+++++++++++++++++        ",
"        ++###@@@###@@@@@+@@@@@@@@@@@@@@+++++++++++++++++        ",
"        ++@#@@@@@#@@@@@@+@@@@@@@@@@@@@@+++++++++++++++++        ",
"        ++@@@@@@@@@@@@@@+@@@@@@@@@@@@@@+++++++++++++++++        ",
"        ++@@@@@@@@@@@@@@+@@+++++@++@@@@+++++++++++++++++        ",
"        ++@@@@@@@@@@@@@@+@@+++++@++@@@@+$$$$$$$$$$$$$$++        ",
"        ++@@@@#@@@@@#@@@+@@++@@@@++@@@@+$$$$$$$$$$$$$$++        ",
"        ++@@@###@@@###@@+@@++@@@@++@@@@+$$$$$$$$$$$$$$++        ",
"        ++@@@@#@@@@@#@@@+@@++++@@++@@@@+$$$$$$$$$$$$$$++        ",
"        ++@@@@@@@@@@@@@@+@@++++@@++@@@@+$$$$$$$$$$$$$$++        ",
"        ++@@@@@@@@@@@@@@+@@++@@@@++@@@@+$$$$$$$$$$$$$$++        ",
"        +++++++++++++++++@@++@@@@+++++@+++++++++++++++++        ",
"        +++++++++++++++++@@++@@@@+++++@+@@@@@@@@@@@@@@++        ",
"        +++++++++++++++++@@@@@@@@@@@@@@+@@@@@@@@@@@@@@++        ",
"         ++++++++++++++++@@@@@@@@@@@@@@+@@@#@@@@@#@@@++         ",
"         ++++++++++++++++@@@@@@@@@@@@@@+@@###@@@###@@++         ",
"         +++++++++++++++++@@@@@@@@@@@@+@@@@#@@@@@#@@@++         ",
"          ++$$$$$$$$$$$$$$+@@@@@@@@@@+@@@@@@@@@@@@@@++          ",
"          ++$$$$$$$$$$$$$$$+@@@@@@@@+@@@@@@@@@@@@@@@++          ",
"           ++$$$$$$$$$$$$$$$++++++++@@@@@@@@@@@@@@@++           ",
"           ++$$$$$$$$$$$$$$$$$$++@@@@@@#@@@@@#@@@@@++           ",
"            ++$$$$$$$$$$$$$$$$$++@@@@@###@@@###@@@++            ",
"            ++$$$$$$$$$$$$$$$$$++@@@@@@#@@@@@#@@@@++            ",
"             ++++++++++++++++++++@@@@@@@@@@@@@@@@++             ",
"              +++++++++++++++++++@@@@@@@@@@@@@@@@+              ",
"              +++++++++++++++++++@@@@@@@@@@@@@@@++              ",
"               ++++++++++++++++++@@#@@@@@#@@@@@++               ",
"                +++++++++++++++++@###@@@###@@@++                ",
"                 ++++++++++++++++@@#@@@@@#@@@++                 ",
"                  ++$$$$$$$$$$$++@@@@@@@@@@@++                  ",
"                   ++$$$$$$$$$$++@@@@@@@@@@++                   ",
"                    ++$$$$$$$$$++@@@@@@@@@++                    ",
"                     +++$$$$$$$++@@@@@@@+++                     ",
"                      ++++$$$$$++@@@@@++++                      ",
"                        ++++$$$++@@@++++                        ",
"                          ++++$++@++++                          ",
"                            ++++++++                            ",
"                              ++++                              ",
"                                                                "};
