/* XPM */
static char const * add_xpm[] = {
"48 48 134 2",
"  	c None",
". 	c #3465A4",
"+ 	c #C5D7EB",
"@ 	c #C7D9EC",
"# 	c #A0BEDF",
"$ 	c #9FBEDE",
"% 	c #C6D9EC",
"& 	c #9FBDDE",
"* 	c #C3D7EA",
"= 	c #9FBDDF",
"- 	c #9EBDDF",
"; 	c #C3D6EA",
"> 	c #9EBCDF",
", 	c #C1D5EA",
"' 	c #C5D8EB",
") 	c #9FBEDF",
"! 	c #C0D4EA",
"~ 	c #C4D7EA",
"{ 	c #9DBCDF",
"] 	c #BFD3E9",
"^ 	c #9CBCDF",
"/ 	c #BED2E9",
"( 	c #C5D9EC",
"_ 	c #C5D7EC",
": 	c #C3D5EB",
"< 	c #BCD1E8",
"[ 	c #BBD1E8",
"} 	c #BAD0E8",
"| 	c #BACFE8",
"1 	c #B8CEE7",
"2 	c #B7CEE8",
"3 	c #B6CDE6",
"4 	c #B4CCE6",
"5 	c #B1CAE6",
"6 	c #B1CBE5",
"7 	c #C6D8EB",
"8 	c #9BBBDF",
"9 	c #9BBADF",
"0 	c #9ABADF",
"a 	c #99BADF",
"b 	c #99B9DF",
"c 	c #98B9DF",
"d 	c #98B8E0",
"e 	c #AFC8E5",
"f 	c #3666A4",
"g 	c #97B7DF",
"h 	c #92B5DD",
"i 	c #90B4DD",
"j 	c #8FB2DD",
"k 	c #8EB2DD",
"l 	c #A6C3E2",
"m 	c #B4CDE6",
"n 	c #8AB0D7",
"o 	c #8DB2D8",
"p 	c #90B3D9",
"q 	c #8FB3DA",
"r 	c #8CB1D9",
"s 	c #8CB0D9",
"t 	c #8AAFD8",
"u 	c #88AED8",
"v 	c #84ACD7",
"w 	c #83AAD6",
"x 	c #80A8D7",
"y 	c #7DA6D6",
"z 	c #79A3D5",
"A 	c #77A2D4",
"B 	c #73A0D3",
"C 	c #709DD2",
"D 	c #6D9CD2",
"E 	c #6B99D1",
"F 	c #6A99D1",
"G 	c #6999D1",
"H 	c #6998D2",
"I 	c #6898D2",
"J 	c #6897D2",
"K 	c #86AED8",
"L 	c #ACC6E3",
"M 	c #77A2D1",
"N 	c #73A0CF",
"O 	c #739FCF",
"P 	c #729FD0",
"Q 	c #719ED0",
"R 	c #709DD0",
"S 	c #6F9DD0",
"T 	c #6F9CD0",
"U 	c #6E9CD1",
"V 	c #6D9BD1",
"W 	c #6C9BD1",
"X 	c #6B9AD1",
"Y 	c #6797D2",
"Z 	c #84ABD6",
"` 	c #AAC4E1",
" .	c #AAC5E2",
"..	c #A9C4E1",
"+.	c #A7C3E1",
"@.	c #A5C2E1",
"#.	c #A4C1E1",
"$.	c #A3C1E0",
"%.	c #A0BFDF",
"&.	c #6F9DD1",
"*.	c #6C9AD1",
"=.	c #94B6DC",
"-.	c #93B6DB",
";.	c #91B4DB",
">.	c #90B3DA",
",.	c #8DB1DA",
"'.	c #8AAED9",
").	c #88AFD9",
"!.	c #86ACD9",
"~.	c #85ABD7",
"{.	c #84ACD6",
"].	c #9AB9DD",
"^.	c #93B5DB",
"/.	c #99B9DD",
"(.	c #97B7DC",
"_.	c #8FB3DB",
":.	c #95B7DC",
"<.	c #8EB1DA",
"[.	c #93B4DB",
"}.	c #6B9AD2",
"|.	c #8CB0DA",
"1.	c #91B3DB",
"2.	c #6B99D2",
"3.	c #89AED9",
"4.	c #8FB2DA",
"5.	c #6A99D2",
"6.	c #87ADD7",
"7.	c #8DB1D9",
"8.	c #6999D2",
"9.	c #85ABD8",
"0.	c #8BAFD9",
"a.	c #89AFDA",
"b.	c #86ADD9",
"c.	c #85ACD7",
"                                                                                                ",
"                                                                                                ",
"                                                                                                ",
"                                                                                                ",
"                                                                                                ",
"                                                                                                ",
"                                                                                                ",
"                                                                                                ",
"                                                                                                ",
"                                                                                                ",
"                                                                                                ",
"                                        . . . . . . . .                                         ",
"                                        . + + + + + +                                           ",
"                                        . @ # $ $ $ %                                           ",
"                                        . @ # $ $ $ %                                           ",
"                                        . @ # $ $ & +                                           ",
"                                        . @ # $ & & *                                           ",
"                                        . @ # & = - ;                                           ",
"                                        . @ # = - > ,                                           ",
"                                        . ' ) - > > !                                           ",
"                                          ~ = > > { ]                                           ",
"                      . . . . . . . .     ; - > { ^ /   . . . . . . . . .                       ",
"                      @ @ @ @ @ @ % ( _ * : - { ^ ^ < [ } | 1 2 3 4 4 5 6                       ",
"                      7 $ $ $ $ $ & - - > > { ^ ^ 8 8 9 9 0 0 a b b c d e                       ",
"                    f @ $ $ $ $ & - - > > { ^ ^ 8 8 9 9 0 a b g h i j k l                       ",
"                      m n o p p q r s t u v w x y z A B C D E F G H I J K                       ",
"                      L M N O P Q Q R R S T U U V V W X X F F G I I J Y Z                       ",
"                      `  . ...+.@.#.$.%.) { &.V V *.=.-.;.>.,.r '.).!.~.{.                      ",
"                    . . . . . . . . . . . ].U V *.X ^.  . . . . . . . . .                       ",
"                                          /.V *.X E ;.                                          ",
"                                          (.V X E F _.                                          ",
"                                          :.W E F G <.                                          ",
"                                          [.}.F G H |.                                          ",
"                                          1.2.G H I 3.                                          ",
"                                          4.5.H I J 6.                                          ",
"                                          7.8.I J Y 9.                                          ",
"                                          7.0.a.b.c.c.                                          ",
"                                          . . . .     .                                         ",
"                                                                                                ",
"                                                                                                ",
"                                                                                                ",
"                                                                                                ",
"                                                                                                ",
"                                                                                                ",
"                                                                                                ",
"                                                                                                ",
"                                                                                                ",
"                                                                                                "};
