/* XPM */
static char const * first_xpm[] = {
"48 48 416 2",
"  	c None",
". 	c #3A7304",
"+ 	c #3E7609",
"@ 	c #3B7405",
"# 	c #C0DCA7",
"$ 	c #C2DDAA",
"% 	c #C3DDAC",
"& 	c #C5DEAD",
"* 	c #C1DBA7",
"= 	c #C0DBA6",
"- 	c #89BC59",
"; 	c #8BBD5C",
"> 	c #8EBE60",
", 	c #BDD8A2",
"' 	c #C0DAA5",
") 	c #88BB57",
"! 	c #8ABC5A",
"~ 	c #8CBE5E",
"{ 	c #BFDAA5",
"] 	c #BED9A4",
"^ 	c #BEDAA4",
"/ 	c #86BA55",
"( 	c #88BB58",
"_ 	c #8ABC5B",
": 	c #BBD8A0",
"< 	c #94C268",
"[ 	c #BFDBA5",
"} 	c #BED9A3",
"| 	c #84B952",
"1 	c #BDD9A3",
"2 	c #B5D597",
"3 	c #90C062",
"4 	c #BFDAA4",
"5 	c #BDD9A2",
"6 	c #82B84F",
"7 	c #B2D095",
"8 	c #ADD08C",
"9 	c #8CBE5D",
"0 	c #BCD8A0",
"a 	c #80B74C",
"b 	c #83B851",
"c 	c #B9D69F",
"d 	c #A3CB7D",
"e 	c #87BA56",
"f 	c #86BA54",
"g 	c #BCD9A1",
"h 	c #BBD89F",
"i 	c #7EB549",
"j 	c #7FB64B",
"k 	c #81B74D",
"l 	c #BAD89F",
"m 	c #97C36C",
"n 	c #85BA52",
"o 	c #83BA51",
"p 	c #BCD9A0",
"q 	c #40770C",
"r 	c #42790F",
"s 	c #41780E",
"t 	c #B9D79D",
"u 	c #7BB445",
"v 	c #7DB547",
"w 	c #7FB64A",
"x 	c #B7D69B",
"y 	c #8EBF61",
"z 	c #85BA53",
"A 	c #84BA52",
"B 	c #83BA50",
"C 	c #83BA4F",
"D 	c #82B94D",
"E 	c #BBD99E",
"F 	c #BCDA9F",
"G 	c #BCDAA0",
"H 	c #BBDA9F",
"I 	c #BADA9D",
"J 	c #B9D89C",
"K 	c #B8D89B",
"L 	c #B7D799",
"M 	c #B5D798",
"N 	c #B4D594",
"O 	c #AED28E",
"P 	c #ADD18B",
"Q 	c #ACD08A",
"R 	c #AFD28E",
"S 	c #3C7406",
"T 	c #B8D69B",
"U 	c #78B242",
"V 	c #7AB344",
"W 	c #7CB446",
"X 	c #AED18E",
"Y 	c #83B950",
"Z 	c #83B94F",
"` 	c #83BA4E",
" .	c #82BA4D",
"..	c #81BA4C",
"+.	c #81BA4A",
"@.	c #80BA48",
"#.	c #7EB946",
"$.	c #7EB944",
"%.	c #7CB841",
"&.	c #7AB73F",
"*.	c #77B63C",
"=.	c #75B539",
"-.	c #74B337",
";.	c #71B135",
">.	c #6FAF32",
",.	c #6CAD2E",
"'.	c #69AB2B",
").	c #66A928",
"!.	c #ADD08B",
"~.	c #B7D599",
"{.	c #76B13F",
"].	c #78B241",
"^.	c #79B343",
"/.	c #B7D59A",
"(.	c #AACB89",
"_.	c #A4CB7F",
":.	c #80B74D",
"<.	c #80B74B",
"[.	c #81B84C",
"}.	c #81B94B",
"|.	c #81BA4B",
"1.	c #80BA4A",
"2.	c #80BA49",
"3.	c #7FBB47",
"4.	c #7EBA45",
"5.	c #7DBA43",
"6.	c #7CB941",
"7.	c #7AB93F",
"8.	c #78B83C",
"9.	c #77B73A",
"0.	c #75B537",
"a.	c #72B434",
"b.	c #71B332",
"c.	c #6EB12F",
"d.	c #6CAF2C",
"e.	c #69AD29",
"f.	c #67AA26",
"g.	c #ADD28B",
"h.	c #73AF3B",
"i.	c #75B03D",
"j.	c #B5D497",
"k.	c #B1D092",
"l.	c #99C570",
"m.	c #7DB647",
"n.	c #7EB847",
"o.	c #7FBA47",
"p.	c #7EBB44",
"q.	c #7DBB42",
"r.	c #7CBA40",
"s.	c #7BBA3E",
"t.	c #79B93B",
"u.	c #77B939",
"v.	c #76B737",
"w.	c #75B735",
"x.	c #72B532",
"y.	c #71B430",
"z.	c #6EB22D",
"A.	c #6BAF2A",
"B.	c #68AD26",
"C.	c #66AC24",
"D.	c #ADD289",
"E.	c #B4D495",
"F.	c #70AD36",
"G.	c #71AE38",
"H.	c #73AF3A",
"I.	c #B4D496",
"J.	c #B2D293",
"K.	c #7AB443",
"L.	c #7BB543",
"M.	c #7CB644",
"N.	c #7CB743",
"O.	c #7DB943",
"P.	c #7DBB41",
"Q.	c #7CBC3F",
"R.	c #7BBC3E",
"S.	c #7ABB3C",
"T.	c #79BA3A",
"U.	c #78BB39",
"V.	c #76B936",
"W.	c #75B834",
"X.	c #73B831",
"Y.	c #72B62F",
"Z.	c #6FB42D",
"`.	c #6DB32B",
" +	c #6BB127",
".+	c #68AE24",
"++	c #65AC21",
"@+	c #ADD288",
"#+	c #B3D393",
"$+	c #6DAC32",
"%+	c #6FAD34",
"&+	c #B3D394",
"*+	c #ADD08D",
"=+	c #80B64C",
"-+	c #76B13E",
";+	c #77B33E",
">+	c #79B43F",
",+	c #79B63F",
"'+	c #7AB840",
")+	c #7ABA3F",
"!+	c #7BBB3D",
"~+	c #7ABB3B",
"{+	c #7ABC3A",
"]+	c #78BC38",
"^+	c #78BB36",
"/+	c #77BB35",
"(+	c #76BB33",
"_+	c #73BA30",
":+	c #72B82E",
"<+	c #71B72C",
"[+	c #6EB62B",
"}+	c #6CB327",
"|+	c #69B225",
"1+	c #67B022",
"2+	c #64AD1E",
"3+	c #ACD388",
"4+	c #B1D291",
"5+	c #6AAA2E",
"6+	c #6CAB30",
"7+	c #6DAB31",
"8+	c #B1D292",
"9+	c #A5CC81",
"0+	c #72AF38",
"a+	c #74B13A",
"b+	c #75B33A",
"c+	c #76B43A",
"d+	c #77B63B",
"e+	c #79BC39",
"f+	c #79BC38",
"g+	c #79BD38",
"h+	c #78BD36",
"i+	c #77BC35",
"j+	c #76BD33",
"k+	c #75BC31",
"l+	c #74BC30",
"m+	c #73BA2E",
"n+	c #71B92B",
"o+	c #6FB82A",
"p+	c #6EB627",
"q+	c #6BB525",
"r+	c #69B322",
"s+	c #66B01E",
"t+	c #64AE1C",
"u+	c #ACD386",
"v+	c #B0D18F",
"w+	c #68A92A",
"x+	c #68A92B",
"y+	c #6AAA2D",
"z+	c #B1D391",
"A+	c #A1C97C",
"B+	c #97C36D",
"C+	c #6EAD34",
"D+	c #6EAC33",
"E+	c #70AF35",
"F+	c #73B236",
"G+	c #74B436",
"H+	c #75B636",
"I+	c #76BA36",
"J+	c #77BB36",
"K+	c #76BB34",
"L+	c #70B92A",
"M+	c #6AB720",
"N+	c #66B51A",
"O+	c #63B415",
"P+	c #61B311",
"Q+	c #60B410",
"R+	c #5FB40F",
"S+	c #5FB30F",
"T+	c #61B313",
"U+	c #62B316",
"V+	c #64B219",
"W+	c #65B21B",
"X+	c #65B11C",
"Y+	c #62AE18",
"Z+	c #ABD385",
"`+	c #A6CC81",
" @	c #5CA21A",
".@	c #64A725",
"+@	c #67A829",
"@@	c #B0D391",
"#@	c #AFD18E",
"$@	c #6FAD35",
"%@	c #6BAC2E",
"&@	c #6EAE30",
"*@	c #6EB031",
"=@	c #70B232",
"-@	c #71B432",
";@	c #73B532",
">@	c #72B630",
",@	c #6DB529",
"'@	c #68B31E",
")@	c #62B216",
"!@	c #5EB00D",
"~@	c #5EB20D",
"{@	c #5FB30D",
"]@	c #5FB40D",
"^@	c #60B50E",
"/@	c #5DB10C",
"(@	c #5CAF0C",
"_@	c #5CAE0E",
":@	c #5DAE10",
"<@	c #A9D382",
"[@	c #A3CA7D",
"}@	c #4E9A06",
"|@	c #4F9A07",
"1@	c #549D0E",
"2@	c #A9CE86",
"3@	c #86B559",
"4@	c #A1C97B",
"5@	c #66A827",
"6@	c #69AB2A",
"7@	c #67AD25",
"8@	c #65AD20",
"9@	c #62AD1B",
"0@	c #5EAC13",
"a@	c #5AAB0C",
"b@	c #5BAD0B",
"c@	c #5DB10D",
"d@	c #5EB30D",
"e@	c #60B60E",
"f@	c #61B70E",
"g@	c #62B80F",
"h@	c #5FB40E",
"i@	c #5BAD0C",
"j@	c #A8D37F",
"k@	c #A3CA7E",
"l@	c #9BC673",
"m@	c #65A826",
"n@	c #519E07",
"o@	c #53A108",
"p@	c #54A309",
"q@	c #56A609",
"r@	c #57A80A",
"s@	c #59AB0B",
"t@	c #5AAD0B",
"u@	c #63B90F",
"v@	c #63BA0F",
"w@	c #63BB0F",
"x@	c #64BB0F",
"y@	c #A9D47F",
"z@	c #9AC572",
"A@	c #53A208",
"B@	c #55A509",
"C@	c #57A70A",
"D@	c #58AA0A",
"E@	c #5AAC0B",
"F@	c #62B90F",
"G@	c #64BC10",
"H@	c #65BD10",
"I@	c #A9D57F",
"J@	c #95C26B",
"K@	c #86BE50",
"L@	c #57A70B",
"M@	c #58A80A",
"N@	c #5BAE0C",
"O@	c #5DB00C",
"P@	c #66BE10",
"Q@	c #67BF11",
"R@	c #67C011",
"S@	c #AAD57F",
"T@	c #8AB95C",
"U@	c #92C660",
"V@	c #5DAC11",
"W@	c #61B60E",
"X@	c #66BF11",
"Y@	c #68C211",
"Z@	c #69C312",
"`@	c #68C111",
" #	c #AAD780",
".#	c #9BCC6D",
"+#	c #65B21A",
"@#	c #5CB00C",
"##	c #62B80E",
"$#	c #6AC412",
"%#	c #6BC512",
"&#	c #6BC612",
"*#	c #A2D176",
"=#	c #71BA2A",
"-#	c #64BB10",
";#	c #6AC512",
">#	c #6BC713",
",#	c #6CC813",
"'#	c #6DC813",
")#	c #6CC713",
"!#	c #ABD880",
"~#	c #A3D277",
"{#	c #7CC239",
"]#	c #B1E182",
"^#	c #B3E385",
"/#	c #B4E485",
"(#	c #B3E285",
"_#	c #B2E184",
":#	c #B1DF84",
"<#	c #B0DE84",
"[#	c #AFDD83",
"}#	c #AEDB83",
"|#	c #ADDA82",
"1#	c #ADD982",
"2#	c #9ECE6F",
"3#	c #8DCB50",
"4#	c #64BA10",
"5#	c #B2E282",
"6#	c #95C863",
"7#	c #99D262",
"8#	c #6AC017",
"9#	c #67C111",
"0#	c #6BC613",
"a#	c #A3D86F",
"b#	c #70C51F",
"c#	c #A9DB79",
"d#	c #7BCA2E",
"e#	c #AADC7A",
"f#	c #84CF3C",
"g#	c #A6D975",
"h#	c #9CD268",
"i#	c #A3CB7E",
"                                                                                                ",
"                                                                                                ",
"                                                                                                ",
"                                                                                                ",
"                                                                                                ",
"                                                                                                ",
"      . . . . +                                                                                 ",
"    @ # $ % & *                                                                                 ",
"    @ = - ; > =                                   ,                                             ",
"    @ ' ) ! ~ {                                 ] $                                             ",
"    @ ^ / ( _ ^                               : < [                                             ",
"    @ } | / ( 1                             2 3 _ 4                                             ",
"    @ 5 6 | / 5                         7 8 9 ! ( 5                                             ",
"    @ 0 a 6 b 0                       c d ! ( e f g                                             ",
"    @ h i j k l                     : m ) e f n o p   . . . . . . . + q r r s                   ",
"    @ t u v w t                   x y f z A B C D E F G H I J K L M N O P Q R S                 ",
"    @ T U V W T                 X e 6 Y Z `  ...+.@.#.$.%.&.*.=.-.;.>.,.'.).!.S                 ",
"    @ ~.{.].^./.            (._.:.<.[.}.|.1.2.@.3.4.5.6.7.8.9.0.a.b.c.d.e.f.g.S                 ",
"    @ 2 h.i.{.j.          k.l.v v m.n.n.o.o.4.p.q.q.r.s.t.u.v.w.x.y.z.A.B.C.D.S                 ",
"    @ E.F.G.H.I.        J.; ^.K.L.M.N.O.O.q.q.P.Q.R.S.T.U.V.W.X.Y.Z.`. +.+++@+S                 ",
"    @ #+$+%+F.&+      *+=+i.-+;+>+,+'+7.)+s.!+!+~+{+]+^+/+(+_+:+<+[+}+|+1+2+3+S                 ",
"    @ 4+5+6+7+8+    9+{.G.0+a+b+c+d+9.t.T.T.e+f+g+h+i+j+k+l+m+n+o+p+q+r+s+t+u+S                 ",
"    @ v+w+x+y+z+A+B+C+$+D+E+;.F+G+H+v.V.I+J+K+L+M+N+O+P+Q+R+S+P+T+U+V+W+X+Y+Z+S                 ",
"    @ `+ @.@+@@@#@$@y+5+%@&@*@=@-@;@>@,@'@)@!@~@{@]@^@^@^@^@^@]@{@~@/@(@_@:@<@S                 ",
"    @ [@}@|@1@2@3@4@$@5@6@e.7@8@9@0@a@b@(@c@d@]@e@f@f@g@g@g@f@f@e@h@d@c@(@i@j@S                 ",
"    @ [@}@}@}@k@.   l@m@n@o@p@q@r@s@t@(@c@{@^@f@g@u@v@w@x@x@v@u@g@f@^@{@c@(@y@S                 ",
"    @ [@}@}@}@k@      z@b+A@B@C@D@E@(@c@{@^@f@F@v@G@H@H@H@H@H@G@w@F@f@^@{@c@I@S                 ",
"    @ [@}@}@}@k@        J@K@L@M@s@N@O@~@^@f@u@x@H@P@Q@R@R@R@Q@P@H@x@u@f@^@d@S@S                 ",
"    @ [@}@}@}@k@.         T@U@V@E@(@c@]@W@F@x@H@X@R@Y@Z@Z@Z@Y@`@Q@H@x@F@f@]@ #S                 ",
"    @ [@}@}@}@k@.             .#+#@#d@^@##v@H@X@`@Z@$#%#&#%#$#Z@`@Q@H@w@g@^@ #S                 ",
"    @ [@}@}@}@k@.               *#=#]@W@F@-#P@R@Z@;#>#,#'#,#)#;#Z@`@P@G@u@f@!#S                 ",
"    @ [@}@}@}@k@.                 ~#{#f@v@H@Q@Y@$#]#^#/#/#/#^#(#_#:#<#[#}#|#1#S                 ",
"    @ [@}@}@}@k@.                   2#3#4#H@R@Z@&#5#  . . . . . . . . . . . .                   ",
"    @ [@}@}@}@k@.                     6#7#8#9#Z@0#5#                                            ",
"    @ [@}@}@}@k@.                         a#b#Z@0#5#                                            ",
"    @ [@}@}@}@k@.                           c#d#0#5#                                            ",
"    @ [@}@}@}@k@.                             e#f#]#                                            ",
"    @ [@}@}@}@k@.                               g#_#                                            ",
"    @ [@}@}@}@k@                                  h#                                            ",
"    @ i#i#i#i#k@                                                                                ",
"      . . . . .                                                                                 ",
"                                                                                                ",
"                                                                                                ",
"                                                                                                ",
"                                                                                                ",
"                                                                                                ",
"                                                                                                ",
"                                                                                                "};
