/* XPM */
static char const * last_xpm[] = {
"48 48 356 2",
"  	c None",
". 	c #3A7304",
"+ 	c #497E18",
"@ 	c #B4D495",
"# 	c #B3D494",
"$ 	c #B2D393",
"% 	c #B1D291",
"& 	c #ADD08C",
"* 	c #3B7405",
"= 	c #C9DFB4",
"- 	c #B5D597",
"; 	c #6FAD34",
"> 	c #6CAB30",
", 	c #6AAA2D",
"' 	c #AED18D",
") 	c #CBE2B6",
"! 	c #C6DDAE",
"~ 	c #B4D496",
"{ 	c #6EAC33",
"] 	c #69A92C",
"^ 	c #C9E0B2",
"/ 	c #9DC775",
"( 	c #BFDAA5",
"_ 	c #6BAB2F",
": 	c #68A92B",
"< 	c #AED18C",
"[ 	c #C7DFB1",
"} 	c #95C36B",
"| 	c #97C36D",
"1 	c #B6D598",
"2 	c #6DAB31",
"3 	c #6AAA2E",
"4 	c #68A92A",
"5 	c #C6DEAE",
"6 	c #93C167",
"7 	c #91C065",
"8 	c #90C063",
"9 	c #A9CE87",
"0 	c #B6D39B",
"a 	c #B3D495",
"b 	c #67A829",
"c 	c #C4DDAC",
"d 	c #8FBF61",
"e 	c #8DBE5F",
"f 	c #8CBD5D",
"g 	c #9EC776",
"h 	c #BAD69F",
"i 	c #66A828",
"j 	c #ADD08B",
"k 	c #40770C",
"l 	c #447A11",
"m 	c #467C14",
"n 	c #C3DCAA",
"o 	c #8CBE5E",
"p 	c #8ABC5B",
"q 	c #89BC59",
"r 	c #88BB57",
"s 	c #94C267",
"t 	c #B8D69C",
"u 	c #65A726",
"v 	c #ACD08A",
"w 	c #BBD89F",
"x 	c #B8D69B",
"y 	c #B9D79C",
"z 	c #BAD79D",
"A 	c #B7D69A",
"B 	c #B6D699",
"C 	c #B7D699",
"D 	c #B5D496",
"E 	c #B6D599",
"F 	c #8ABC5A",
"G 	c #86BA55",
"H 	c #85B953",
"I 	c #83B850",
"J 	c #B3D394",
"K 	c #B2D292",
"L 	c #64A624",
"M 	c #ACD089",
"N 	c #BDDAA2",
"O 	c #81B74E",
"P 	c #84B952",
"Q 	c #86BA54",
"R 	c #87BA56",
"S 	c #88BB58",
"T 	c #83B851",
"U 	c #82B84F",
"V 	c #80B74C",
"W 	c #7FB64A",
"X 	c #A8CD84",
"Y 	c #64A725",
"Z 	c #62A522",
"` 	c #ABCF88",
" .	c #BCD9A0",
"..	c #81B74D",
"+.	c #7FB64B",
"@.	c #7EB549",
"#.	c #7CB446",
"$.	c #7AB344",
"%.	c #9AC571",
"&.	c #A7CA87",
"*.	c #B0D190",
"=.	c #63A623",
"-.	c #61A520",
";.	c #AACE88",
">.	c #BAD89E",
",.	c #7DB548",
"'.	c #7BB445",
").	c #78B241",
"!.	c #76B13F",
"~.	c #75B03D",
"{.	c #ABCD8B",
"].	c #AFD18F",
"^.	c #61A521",
"/.	c #5FA41D",
"(.	c #B9D79D",
"_.	c #79B343",
":.	c #7DB547",
"<.	c #7FB649",
"[.	c #7FB74A",
"}.	c #7FB84A",
"|.	c #7FB749",
"1.	c #7EB748",
"2.	c #7DB647",
"3.	c #7DB646",
"4.	c #7BB545",
"5.	c #7AB343",
"6.	c #77B140",
"7.	c #76B13E",
"8.	c #73AF3B",
"9.	c #72AF39",
"0.	c #70AD36",
"a.	c #ABCE8A",
"b.	c #AED08D",
"c.	c #5DA21B",
"d.	c #A8CD85",
"e.	c #7BB444",
"f.	c #7DB746",
"g.	c #7DB846",
"h.	c #7DB845",
"i.	c #7CB744",
"j.	c #7BB743",
"k.	c #79B540",
"l.	c #79B43F",
"m.	c #76B33D",
"n.	c #75B13C",
"o.	c #73AF3A",
"p.	c #71AE37",
"q.	c #6FAD35",
"r.	c #74B03C",
"s.	c #A5CB81",
"t.	c #5DA31B",
"u.	c #5BA219",
"v.	c #B5D598",
"w.	c #78B340",
"x.	c #7AB541",
"y.	c #7BB642",
"z.	c #7BB742",
"A.	c #7CB842",
"B.	c #7CB942",
"C.	c #7BB941",
"D.	c #7AB840",
"E.	c #7AB73F",
"F.	c #78B63D",
"G.	c #77B53C",
"H.	c #75B33A",
"I.	c #73B138",
"J.	c #70AF36",
"K.	c #99C570",
"L.	c #ACCF8A",
"M.	c #59A016",
"N.	c #A7CC83",
"O.	c #B4D596",
"P.	c #71AE38",
"Q.	c #73B03A",
"R.	c #75B23C",
"S.	c #77B43C",
"T.	c #78B53D",
"U.	c #79B73E",
"V.	c #7AB83E",
"W.	c #7AB93E",
"X.	c #7AB93F",
"Y.	c #7BBA3E",
"Z.	c #7AB93D",
"`.	c #78B83B",
" +	c #77B739",
".+	c #75B537",
"++	c #6CB02B",
"@+	c #63AA1F",
"#+	c #5AA414",
"$+	c #549F0D",
"%+	c #4E9A06",
"&+	c #4F9B08",
"*+	c #96C26C",
"=+	c #A5CC81",
"-+	c #539D0D",
";+	c #549E0F",
">+	c #569E11",
",+	c #A6CC82",
"'+	c #B2D493",
")+	c #6DAC32",
"!+	c #71AF36",
"~+	c #73B237",
"{+	c #74B437",
"]+	c #76B639",
"^+	c #78B83A",
"/+	c #79BA3A",
"(+	c #78BA39",
"_+	c #71B62E",
":+	c #68B121",
"<+	c #60AD16",
"[+	c #58A80C",
"}+	c #56A609",
"|+	c #54A409",
"1+	c #53A208",
"2+	c #529F08",
"3+	c #509D07",
"4+	c #A3CA7D",
"5+	c #A4CB7F",
"6+	c #A3CA7E",
"7+	c #58A015",
"8+	c #5FA41E",
"9+	c #6BAC2E",
"0+	c #6FAF32",
"a+	c #71B233",
"b+	c #73B434",
"c+	c #74B735",
"d+	c #75B834",
"e+	c #6DB527",
"f+	c #68B41F",
"g+	c #63B118",
"h+	c #5CAF0E",
"i+	c #5BAD0C",
"j+	c #5AAD0B",
"k+	c #5AAC0B",
"l+	c #59AA0B",
"m+	c #58A90A",
"n+	c #56A70A",
"o+	c #55A409",
"p+	c #519F07",
"q+	c #509C07",
"r+	c #66A727",
"s+	c #9CC673",
"t+	c #68A32F",
"u+	c #A3CB7E",
"v+	c #4F9C06",
"w+	c #54A209",
"x+	c #57A50C",
"y+	c #59A80D",
"z+	c #59AA0C",
"A+	c #5CAF0C",
"B+	c #5CB00C",
"C+	c #5DB10C",
"D+	c #5DB10D",
"E+	c #5BAD0B",
"F+	c #59AB0B",
"G+	c #53A108",
"H+	c #519E07",
"I+	c #4F9B06",
"J+	c #9AC572",
"K+	c #509E07",
"L+	c #52A108",
"M+	c #5BAE0C",
"N+	c #5DB00C",
"O+	c #5EB20D",
"P+	c #5FB30D",
"Q+	c #5FB40D",
"R+	c #5EB30D",
"S+	c #56A60A",
"T+	c #519D08",
"U+	c #94C169",
"V+	c #4F9C07",
"W+	c #54A308",
"X+	c #60B50E",
"Y+	c #61B60E",
"Z+	c #61B70E",
"`+	c #58A40E",
" @	c #8CBF5B",
".@	c #8BBA5F",
"+@	c #57A80A",
"@@	c #60B60E",
"#@	c #62B80F",
"$@	c #63B90F",
"%@	c #63BA0F",
"&@	c #62B80E",
"*@	c #60AB16",
"=@	c #97C769",
"-@	c #7FB44F",
";@	c #64BB0F",
">@	c #65BC10",
",@	c #65BD10",
"'@	c #66BE10",
")@	c #69B421",
"!@	c #9FCD72",
"~@	c #5BA217",
"{@	c #5DA617",
"]@	c #5FAA18",
"^@	c #62AD19",
"/@	c #63B01A",
"(@	c #66B31B",
"_@	c #68B71C",
":@	c #6ABA1D",
"<@	c #6CBC1E",
"[@	c #6EBF1E",
"}@	c #6FC11F",
"|@	c #71C320",
"1@	c #71C520",
"2@	c #68C111",
"3@	c #67C011",
"4@	c #67BF11",
"5@	c #77BE33",
"6@	c #A3D177",
"7@	c #98C46E",
"8@	c #99C66F",
"9@	c #9BC870",
"0@	c #9CCB70",
"a@	c #9ECD71",
"b@	c #9FCF71",
"c@	c #A0D172",
"d@	c #A2D373",
"e@	c #A3D573",
"f@	c #A4D774",
"g@	c #A6D974",
"h@	c #A7DA75",
"i@	c #A8DC75",
"j@	c #B1E083",
"k@	c #6AC412",
"l@	c #69C412",
"m@	c #68C211",
"n@	c #84C744",
"o@	c #A3D274",
"p@	c #B2E284",
"q@	c #6CC713",
"r@	c #6AC512",
"s@	c #67C013",
"t@	c #90CF53",
"u@	c #9ECF6D",
"v@	c #B3E384",
"w@	c #6ECB14",
"x@	c #6DCA14",
"y@	c #6FC619",
"z@	c #9DD766",
"A@	c #95CB61",
"B@	c #B4E484",
"C@	c #70CE15",
"D@	c #6FCC14",
"E@	c #76CC22",
"F@	c #A7DC72",
"G@	c #B4E585",
"H@	c #72D116",
"I@	c #7FD32E",
"J@	c #ADE17A",
"K@	c #88D83B",
"L@	c #AEE27C",
"M@	c #B4E485",
"N@	c #AADE76",
"O@	c #A0D56B",
"                                                                                                ",
"                                                                                                ",
"                                                                                                ",
"                                                                                                ",
"                                                                                                ",
"                                                                                                ",
"                                                                                . . . . .       ",
"                                          +                                     @ # $ % & *     ",
"                                            =                                   - ; > , ' *     ",
"                                            ) !                                 ~ { > ] ' *     ",
"                                            ^ / (                               ~ { _ : < *     ",
"                                            [ } | 1                             ~ 2 3 4 & *     ",
"                                            5 6 7 8 9 0                         a > , b & *     ",
"                                            c 8 d e f g h                       # _ : i j *     ",
"                  k k k k k l m m m m m m   n o f p q r s t                     $ , b u v *     ",
"                . w x x y z A B C A A A A D E F q r G H I q J                   K : i L M *     ",
"                . N O I P Q G R r S S S S S r R Q H T U V W V X                 % b Y Z ` *     ",
"                .  .W V ..U I T H H H Q H H P T U O V +.@.#.$.$.%.&.            *.u =.-.;.*     ",
"                . >.#.,.@.+.V ....O O O O O ..V +.W ,.#.'.$.).!.~.e {.          ].L ^./.9 *     ",
"                . (._.$.'.#.:.,.@.@.@.<.[.}.|.1.2.3.4.5.).6.7.8.9.0.+.a.        b.^./.c.d.*     ",
"                . x 7.6.)._.$.$.$.e.3.f.f.g.g.h.i.j.k.l.m.n.o.p.q.{ > r.s.      & /.t.u.X *     ",
"                . v.o.r.~.7.!.6.w.x.y.z.A.A.B.C.D.E.F.G.H.I.J.{ > : Y =.i K.    L.c.u.M.N.*     ",
"                . O.q.p.P.9.Q.R.S.T.U.V.W.X.Y.Y.Z.`. +.+++@+#+$+%+%+%+%+%+&+V *+=+-+;+>+,+*     ",
"                . '+2 )+{ ; !+~+{+]+ +^+/+(+/+(+_+:+<+[+}+|+1+2+3+%+%+%+%+%+t.4+5+%+%+%+6+*     ",
"                . =+7+8+u 9+0+a+b+c+d+_+e+f+g+h+i+j+k+l+m+n+o+1+p+q+%+%+%+r+s+t+u+%+%+%+4+*     ",
"                . u+%+%+v+p+w+x+y+z+k+i+A+B+C+D+C+B+A+E+F+m+n+o+G+H+I+%+0.J+  . 6+%+%+%+4+*     ",
"                . u+%+%+K+L+o+n+m+k+M+N+O+P+Q+Q+Q+R+O+N+M+k+m+S+|+L+T+W U+      6+%+%+%+4+*     ",
"                . u+%+V+2+W+}+m+k+A+D+P+X+Y+Z+Z+Z+Y+X+R+C+M+k+m+}+`+ @.@        6+%+%+%+4+*     ",
"                . u+%+K+G+o++@F+M+D+Q+@@#@$@%@%@%@$@&@@@P+C+M+F+*@=@-@          6+%+%+%+4+*     ",
"                . u+I+p+W+}+m+j+N+P+@@#@;@>@,@'@,@>@%@#@@@R+B+)@!@              6+%+%+%+4+*     ",
"                . u+~@{@]@^@/@(@_@:@<@[@}@|@1@2@3@4@,@;@#@X+5@6@              . 6+%+%+%+4+*     ",
"                . 7@8@9@0@a@b@c@d@e@f@g@h@i@j@k@l@m@3@,@%@n@o@                . 6+%+%+%+4+*     ",
"                  . . . . . . . . . . . .   p@q@q@r@m@s@t@u@                  . 6+%+%+%+4+*     ",
"                                            v@w@x@q@y@z@A@                    . 6+%+%+%+4+*     ",
"                                            B@C@D@E@F@                        . 6+%+%+%+4+*     ",
"                                            G@H@I@J@                          . 6+%+%+%+4+*     ",
"                                            G@K@L@                            . 6+%+%+%+4+*     ",
"                                            M@N@                              . 6+%+%+%+4+*     ",
"                                            O@                                  6+%+%+%+4+*     ",
"                                                                                6+u+u+u+u+*     ",
"                                                                                . . . . .       ",
"                                                                                                ",
"                                                                                                ",
"                                                                                                ",
"                                                                                                ",
"                                                                                                ",
"                                                                                                ",
"                                                                                                "};
