/* XPM */
static char const * next_xpm[] = {
"48 48 336 2",
"  	c None",
". 	c #3A7304",
"+ 	c #CEE3B9",
"@ 	c #CDE2B8",
"# 	c #C4DDAC",
"$ 	c #CBE1B6",
"% 	c #9DC875",
"& 	c #BBD89F",
"* 	c #AECE91",
"= 	c #C9E0B3",
"- 	c #98C46F",
"; 	c #96C36C",
"> 	c #AFD18E",
", 	c #B8D49C",
"' 	c #C8DFB1",
") 	c #94C26A",
"! 	c #93C268",
"~ 	c #92C166",
"{ 	c #A6CC81",
"] 	c #BCD8A1",
"^ 	c #C6DEAF",
"/ 	c #91C066",
"( 	c #90C063",
"_ 	c #8FBF62",
": 	c #8EBE60",
"< 	c #99C570",
"[ 	c #BCD9A1",
"} 	c #C5DEAD",
"| 	c #8EBE61",
"1 	c #8DBE5F",
"2 	c #8CBD5D",
"3 	c #8BBD5C",
"4 	c #8ABC5A",
"5 	c #B7D69A",
"6 	c #B1D291",
"7 	c #B8D69B",
"8 	c #B9D79C",
"9 	c #BAD79D",
"0 	c #BAD89E",
"a 	c #BDD9A1",
"b 	c #BDD9A2",
"c 	c #BEDAA3",
"d 	c #C3DDAB",
"e 	c #8ABC5C",
"f 	c #89BC59",
"g 	c #88BB58",
"h 	c #87BA56",
"i 	c #86BA54",
"j 	c #87BB57",
"k 	c #B0D28F",
"l 	c #B5D498",
"m 	c #86BA53",
"n 	c #84B952",
"o 	c #85B954",
"p 	c #87BA55",
"q 	c #88BB57",
"r 	c #8ABC59",
"s 	c #8BBC5B",
"t 	c #8CBD5C",
"u 	c #86BA55",
"v 	c #85B953",
"w 	c #83B851",
"x 	c #82B84F",
"y 	c #81B74D",
"z 	c #A4CB7F",
"A 	c #A5C984",
"B 	c #B4D396",
"C 	c #7FB54A",
"D 	c #7DB548",
"E 	c #7FB64A",
"F 	c #80B74C",
"G 	c #81B74E",
"H 	c #83B850",
"I 	c #86BB54",
"J 	c #86BB53",
"K 	c #85BB52",
"L 	c #84BA51",
"M 	c #82B94E",
"N 	c #81B84D",
"O 	c #7FB64B",
"P 	c #7EB549",
"Q 	c #7DB547",
"R 	c #7BB445",
"S 	c #ADCF8C",
"T 	c #B3D394",
"U 	c #7CB447",
"V 	c #7AB344",
"W 	c #7CB446",
"X 	c #81B74C",
"Y 	c #83BA4F",
"Z 	c #83BB4F",
"` 	c #84BC50",
" .	c #84BB4F",
"..	c #83BB4E",
"+.	c #82BA4D",
"@.	c #81B94B",
"#.	c #7FB84A",
"$.	c #7EB648",
"%.	c #78B242",
"&.	c #77B140",
"*.	c #AED08E",
"=.	c #B2D292",
"-.	c #79B343",
";.	c #78B241",
">.	c #7FB849",
",.	c #80B94A",
"'.	c #82BA4B",
").	c #82BB4B",
"!.	c #82BC4C",
"~.	c #82BC4B",
"{.	c #81BB4A",
"].	c #80BA48",
"^.	c #7DB946",
"/.	c #7CB745",
"(.	c #7AB542",
"_.	c #78B340",
":.	c #76B13F",
"<.	c #74B03C",
"[.	c #73AF3A",
"}.	c #7DB549",
"|.	c #ACCF8A",
"1.	c #B0D190",
"2.	c #75B03D",
"3.	c #78B341",
"4.	c #7AB442",
"5.	c #7BB644",
"6.	c #7DB845",
"7.	c #7FBA47",
"8.	c #80BB47",
"9.	c #80BC47",
"0.	c #80BD47",
"a.	c #7FBC45",
"b.	c #7EBB44",
"c.	c #7CB943",
"d.	c #7AB740",
"e.	c #78B53E",
"f.	c #72B036",
"g.	c #6DAD32",
"h.	c #6DAC32",
"i.	c #6FAD34",
"j.	c #AFD18F",
"k.	c #74B03B",
"l.	c #71AE38",
"m.	c #74B13C",
"n.	c #76B33D",
"o.	c #79B53F",
"p.	c #7CB941",
"q.	c #7DBB42",
"r.	c #7EBB43",
"s.	c #7FBD43",
"t.	c #7FBE43",
"u.	c #7EBD42",
"v.	c #7DBC41",
"w.	c #73B733",
"x.	c #68B024",
"y.	c #5CA913",
"z.	c #55A30A",
"A.	c #53A108",
"B.	c #519F07",
"C.	c #4F9C07",
"D.	c #4E9A06",
"E.	c #539D0D",
"F.	c #58A015",
"G.	c #62A622",
"H.	c #98C46E",
"I.	c #96BE6F",
"J.	c #AED08D",
"K.	c #70AE36",
"L.	c #6FAD35",
"M.	c #72B038",
"N.	c #75B339",
"O.	c #76B53A",
"P.	c #78B83C",
"Q.	c #7ABA3E",
"R.	c #7BBB3E",
"S.	c #7DBC40",
"T.	c #7EBE40",
"U.	c #7EBF40",
"V.	c #7EBE3F",
"W.	c #76BB34",
"X.	c #6AB421",
"Y.	c #5DAE10",
"Z.	c #59AB0B",
"`.	c #58AA0B",
" +	c #57A80A",
".+	c #56A609",
"++	c #54A409",
"@+	c #4F9C06",
"#+	c #509A08",
"$+	c #9AC375",
"%+	c #ACCF8B",
"&+	c #6CAB30",
"*+	c #70B033",
"=+	c #72B335",
"-+	c #74B636",
";+	c #77B838",
">+	c #78BA39",
",+	c #79BC39",
"'+	c #6FB829",
")+	c #67B51C",
"!+	c #60B110",
"~+	c #5DB10C",
"{+	c #5DB00C",
"]+	c #5CAF0C",
"^+	c #5BAE0C",
"/+	c #5AAD0B",
"(+	c #58A90A",
"_+	c #52A108",
":+	c #519E07",
"<+	c #4F9B06",
"[+	c #64A725",
"}+	c #9DC776",
"|+	c #A1C97B",
"1+	c #569F12",
"2+	c #579F11",
"3+	c #5AA314",
"4+	c #5CA616",
"5+	c #5EA917",
"6+	c #60AB16",
"7+	c #5FAE15",
"8+	c #5FAE12",
"9+	c #5CAE0D",
"0+	c #5EB20D",
"a+	c #5EB30D",
"b+	c #5FB40D",
"c+	c #5FB30D",
"d+	c #5DB10D",
"e+	c #5CB00C",
"f+	c #54A309",
"g+	c #52A008",
"h+	c #509D07",
"i+	c #9BC573",
"j+	c #9FC879",
"k+	c #519C0B",
"l+	c #509C07",
"m+	c #5AAC0B",
"n+	c #60B50E",
"o+	c #61B60E",
"p+	c #61B70E",
"q+	c #60B60E",
"r+	c #55A509",
"s+	c #53A208",
"t+	c #96C06E",
"u+	c #519D0B",
"v+	c #62B80F",
"w+	c #63B90F",
"x+	c #63BA0F",
"y+	c #62B90F",
"z+	c #5BAD0B",
"A+	c #59AA0B",
"B+	c #56A70A",
"C+	c #55A20D",
"D+	c #8ABE5A",
"E+	c #8DB962",
"F+	c #529E0C",
"G+	c #529F08",
"H+	c #56A60A",
"I+	c #64BB0F",
"J+	c #65BC10",
"K+	c #65BD10",
"L+	c #64BC10",
"M+	c #62B80E",
"N+	c #58A80A",
"O+	c #5EAA16",
"P+	c #95C667",
"Q+	c #539F0C",
"R+	c #55A409",
"S+	c #5AAB0B",
"T+	c #65BE10",
"U+	c #67BF11",
"V+	c #67C011",
"W+	c #68C111",
"X+	c #66BF10",
"Y+	c #5BAD0C",
"Z+	c #68B221",
"`+	c #9ECB73",
" @	c #54A00C",
".@	c #56A509",
"+@	c #69C212",
"@@	c #69C412",
"#@	c #6AC412",
"$@	c #69C312",
"%@	c #76BC32",
"&@	c #A2CF77",
"*@	c #A0C879",
"=@	c #9FCA77",
"-@	c #A1CC77",
";@	c #A2CE78",
">@	c #A4D079",
",@	c #A5D37A",
"'@	c #A7D57A",
")@	c #A8D67B",
"!@	c #A9D97B",
"~@	c #AADA7C",
"{@	c #ACDC7C",
"]@	c #ADDE7D",
"^@	c #ADDF7D",
"/@	c #AEE07D",
"(@	c #6EC816",
"_@	c #6BC613",
":@	c #66BE10",
"<@	c #83C544",
"[@	c #A0CE73",
"}@	c #40770C",
"|@	c #B1E283",
"1@	c #70CB17",
"2@	c #6DC913",
"3@	c #67BD13",
"4@	c #91CE57",
"5@	c #99C96A",
"6@	c #B2E382",
"7@	c #72CF18",
"8@	c #6FCC14",
"9@	c #6DC813",
"0@	c #6AC512",
"a@	c #6DC319",
"b@	c #9DD566",
"c@	c #B3E483",
"d@	c #74D219",
"e@	c #70CD15",
"f@	c #6DC914",
"g@	c #75C922",
"h@	c #A6DA72",
"i@	c #B3E383",
"j@	c #73D118",
"k@	c #7ECF2E",
"l@	c #ABDD79",
"m@	c #B2E282",
"n@	c #71CE17",
"o@	c #89D53F",
"p@	c #AADD7A",
"q@	c #B1E182",
"r@	c #95D854",
"s@	c #A4D873",
"t@	c #B0DF82",
"u@	c #98CC66",
"                                                                                                ",
"                                                                                                ",
"                                                                                                ",
"                                                                                                ",
"                                                                                                ",
"                                                                                                ",
"                                                                                                ",
"                                          .                                                     ",
"                                                                                                ",
"                                            +                                                   ",
"                                            @ #                                                 ",
"                                            $ % & *                                             ",
"                                            = - ; > ,                                           ",
"                                            ' ) ! ~ { ]                                         ",
"                                            ^ / ( _ : < [                                       ",
"                  . . . . . . . . . . . .   } | 1 2 3 4 ( 5                                     ",
"                  6 7 8 9 0 & [ a b b b c c d e 4 f g h i j k                                   ",
"                  l m n o p q r 4 s t 2 2 2 t q h u v w x y y z A                               ",
"                  B C D E F G x H w n m I I I J K L M N O P Q R ; S                             ",
"                  T U V W D P E F X M Y Z `  . ...+.@.#.$.R V %.&.f *.                          ",
"                  =.-.;.-.V R W $.>.,.'.).!.!.~.~.{.].^./.(._.:.<.[.}.|.                        ",
"                  1.:.2.:.&.3.4.5.6.7.8.9.9.0.0.0.a.b.c.d.e.f.g.h.i.i.<.z                       ",
"                  j.k.l.[.m.n.o.d.p.q.r.s.s.t.t.u.v.w.x.y.z.A.B.C.D.E.F.G.H.I.                  ",
"                  J.K.i.L.M.N.O.P.Q.R.S.T.U.V.W.X.Y.Z.`. +.+++A.B.@+D.D.D.#+G $+                ",
"                  %+h.&+g.*+=+-+;+>+,+W.'+)+!+~+{+]+^+/+Z.(+.+++_+:+<+D.D.D.[+}+                ",
"                  |+1+2+3+4+5+6+7+8+9+{+0+a+b+b+c+a+d+e+^+Z.(+.+f+g+h+D.D.L.i+                  ",
"                  j+k+l+g+f+.+(+m+]+d+c+n+o+p+p+p+q+b+0+{+^+Z. +r+s+:+<+-.t+                    ",
"                  j+u+:+s+r+ +Z.^+d+b+q+v+w+x+x+x+y+p+n+a+{+z+A+B+f+C+D+E+                      ",
"                  j+F+G+f+H+A+z+{+c+o+y+I+J+K+K+K+L+x+M+n+0+]+m+N+O+P+                          ",
"                  j+Q+_+R+ +S+]+0+n+v+I+T+U+V+W+V+X+K+x+p+b+d+Y+Z+`+                            ",
"                  j+ @s+.@(+/+{+b+p+I+T+V++@@@#@$@W+U+J+w+q+0+%@&@                              ",
"                  *@=@-@;@>@,@'@)@!@~@{@]@^@/@(@_@#@W+:@I+p+<@[@                                ",
"                  }@}@}@}@}@}@}@}@}@}@}@}@  |@1@2@_@$@V+3@4@5@                                  ",
"                                            6@7@8@9@0@a@b@                                      ",
"                                            c@d@e@f@g@h@                                        ",
"                                            i@j@e@k@l@                                          ",
"                                            m@n@o@p@                                            ",
"                                            q@r@s@                                              ",
"                                            t@u@                                                ",
"                                                                                                ",
"                                                                                                ",
"                                                                                                ",
"                                                                                                ",
"                                                                                                ",
"                                                                                                ",
"                                                                                                ",
"                                                                                                ",
"                                                                                                "};
