/* XPM */
static char const * open_xpm[] = {
"48 48 282 2",
"  	c None",
". 	c #6F6F6F",
"+ 	c #717171",
"@ 	c #737373",
"# 	c #747474",
"$ 	c #767676",
"% 	c #777777",
"& 	c #797979",
"* 	c #FCFCFC",
"= 	c #F4F4F4",
"- 	c #F3F3F3",
"; 	c #F2F2F2",
"> 	c #F0F0F0",
", 	c #F5F5F5",
"' 	c #F6F6F6",
") 	c #FBFBFB",
"! 	c #FAFAFA",
"~ 	c #E9E9E9",
"{ 	c #F8F8F8",
"] 	c #E8E8E8",
"^ 	c #F7F7F7",
"/ 	c #F9F9F9",
"( 	c #E4E4E4",
"_ 	c #BBBBBB",
": 	c #C8C8C8",
"< 	c #CDCDCD",
"[ 	c #EFEFEF",
"} 	c #C5C5C5",
"| 	c #A6A6A6",
"1 	c #D6D6D6",
"2 	c #C0C0C0",
"3 	c #B0B0B0",
"4 	c #9D9D9D",
"5 	c #606060",
"6 	c #E7E7E7",
"7 	c #E5E5E5",
"8 	c #E6E6E6",
"9 	c #EAEAEA",
"0 	c #C7C7C7",
"a 	c #CBCBCB",
"b 	c #BEBEBE",
"c 	c #A7A7A7",
"d 	c #A5A5A5",
"e 	c #656565",
"f 	c #E2E2E2",
"g 	c #B3B3B3",
"h 	c #AFAFAF",
"i 	c #B1B1B1",
"j 	c #969696",
"k 	c #848484",
"l 	c #979797",
"m 	c #EEEEEE",
"n 	c #DBDBDB",
"o 	c #DCDCDC",
"p 	c #D9D9D9",
"q 	c #D8D8D8",
"r 	c #DADADA",
"s 	c #DDDDDD",
"t 	c #E1E1E1",
"u 	c #B4B4B4",
"v 	c #CACACA",
"w 	c #757575",
"x 	c #D3D3D3",
"y 	c #D5D5D5",
"z 	c #ABABAB",
"A 	c #C2C2C2",
"B 	c #595959",
"C 	c #D0D0D0",
"D 	c #CECECE",
"E 	c #CFCFCF",
"F 	c #CCCCCC",
"G 	c #D1D1D1",
"H 	c #D2D2D2",
"I 	c #949494",
"J 	c #828282",
"K 	c #ECECEC",
"L 	c #B2B2B2",
"M 	c #A4A4A4",
"N 	c #C4C4C4",
"O 	c #6B6B6B",
"P 	c #D4D4D4",
"Q 	c #C1C1C1",
"R 	c #C3C3C3",
"S 	c #DEDEDE",
"T 	c #A3A3A3",
"U 	c #575757",
"V 	c #BABABA",
"W 	c #BDBDBD",
"X 	c #999999",
"Y 	c #9F9F9F",
"Z 	c #B5B5B5",
"` 	c #B6B6B6",
" .	c #B7B7B7",
"..	c #B8B8B8",
"+.	c #9A9A9A",
"@.	c #D7D7D7",
"#.	c #5F5F5F",
"$.	c #DFDFDF",
"%.	c #ADADAD",
"&.	c #A8A8A8",
"*.	c #A2A2A2",
"=.	c #939393",
"-.	c #929292",
";.	c #868686",
">.	c #686868",
",.	c #A9A9A9",
"'.	c #AAAAAA",
").	c #ACACAC",
"!.	c #9B9B9B",
"~.	c #A0A0A0",
"{.	c #BCBCBC",
"].	c #6A86AA",
"^.	c #3B69A6",
"/.	c #3B69A5",
"(.	c #3867A3",
"_.	c #8D8D8D",
":.	c #8B8B8B",
"<.	c #535353",
"[.	c #6284AF",
"}.	c #A0BEDE",
"|.	c #AAC5E1",
"1.	c #858585",
"2.	c #808080",
"3.	c #A9ADB1",
"4.	c #6185B2",
"5.	c #B8CFE7",
"6.	c #90B4D9",
"7.	c #8FB3D9",
"8.	c #8EB3D9",
"9.	c #8EB3D8",
"0.	c #8EB2D8",
"a.	c #8DB2D8",
"b.	c #8DB1D8",
"c.	c #8CB1D8",
"d.	c #8AAFD7",
"e.	c #B7CDE6",
"f.	c #888888",
"g.	c #676767",
"h.	c #BFBFBF",
"i.	c #96A2B1",
"j.	c #5D86B6",
"k.	c #B1CAE5",
"l.	c #85ACD5",
"m.	c #84ABD5",
"n.	c #83ABD5",
"o.	c #83AAD5",
"p.	c #82AAD4",
"q.	c #81AAD4",
"r.	c #81A9D4",
"s.	c #80A9D4",
"t.	c #80A8D4",
"u.	c #7FA8D3",
"v.	c #7FA7D4",
"w.	c #ACC6E3",
"x.	c #959595",
"y.	c #565656",
"z.	c #8497B0",
"A.	c #648CBD",
"B.	c #A5C1E1",
"C.	c #7FA8D4",
"D.	c #7EA7D3",
"E.	c #74A1D0",
"F.	c #8DAED4",
"G.	c #7A7A7A",
"H.	c #626262",
"I.	c #708CAF",
"J.	c #759CC7",
"K.	c #99BADD",
"L.	c #75A1D0",
"M.	c #729FCF",
"N.	c #99BADC",
"O.	c #597EAD",
"P.	c #87A8D0",
"Q.	c #90B4DA",
"R.	c #7DA6D3",
"S.	c #739FCF",
"T.	c #A4C1E0",
"U.	c #AEAEAE",
"V.	c #4571A9",
"W.	c #94B4D8",
"X.	c #88AED7",
"Y.	c #7DA7D3",
"Z.	c #7BA5D2",
"`.	c #73A0CF",
" +	c #7CA6D2",
".+	c #9BBBDC",
"++	c #C0C1C2",
"@+	c #3969A6",
"#+	c #9DBCDD",
"$+	c #82AAD5",
"%+	c #78A3D1",
"&+	c #7FA5D0",
"*+	c #5C5C5C",
"=+	c #C6C6C6",
"-+	c #ACB5C0",
";+	c #4C78AF",
">+	c #97B9DC",
",+	c #7AA4D2",
"'+	c #91B4DA",
")+	c #C9C9C9",
"!+	c #91A3BB",
"~+	c #5F89BA",
"{+	c #7AA5D2",
"]+	c #94B6DB",
"^+	c #728FB5",
"/+	c #6D96C5",
"(+	c #85ABD4",
"_+	c #5E5E5E",
":+	c #5079AD",
"<+	c #7CA3CD",
"[+	c #79A4D1",
"}+	c #77A2D1",
"|+	c #76A2D0",
"1+	c #6994C5",
"2+	c #636363",
"3+	c #9E9E9E",
"4+	c #ADAFB2",
"5+	c #3A6BA7",
"6+	c #87ADD6",
"7+	c #76A2D1",
"8+	c #86ADD6",
"9+	c #585858",
"0+	c #4F5E70",
"a+	c #4A76AC",
"b+	c #719FCF",
"c+	c #719ECF",
"d+	c #75A1D1",
"e+	c #4B678C",
"f+	c #5D89BD",
"g+	c #79A4D2",
"h+	c #73A0D0",
"i+	c #709ECE",
"j+	c #709DCE",
"k+	c #6F9DCE",
"l+	c #6E9DCE",
"m+	c #6E9CCE",
"n+	c #76A1D1",
"o+	c #6694C7",
"p+	c #6E6F70",
"q+	c #3967A3",
"r+	c #6F9BCB",
"s+	c #6F9DCF",
"t+	c #6D9BCE",
"u+	c #6C9BCE",
"v+	c #6C9BCD",
"w+	c #6B9BCD",
"x+	c #6B9ACD",
"y+	c #6A9ACD",
"z+	c #818181",
"A+	c #5A5A5A",
"B+	c #4E5C6E",
"C+	c #416FA8",
"D+	c #6D9CCE",
"E+	c #6999CD",
"F+	c #6899CD",
"G+	c #6898CD",
"H+	c #6798CD",
"I+	c #6798CC",
"J+	c #6A98CC",
"K+	c #838383",
"L+	c #59595A",
"M+	c #3D6597",
"N+	c #5484BC",
"O+	c #6797CC",
"P+	c #6697CC",
"Q+	c #6597CC",
"R+	c #6596CC",
"S+	c #6496CC",
"T+	c #3E5775",
"U+	c #3D6CA6",
"V+	c #6394CB",
"W+	c #6395CB",
"X+	c #6295CB",
"Y+	c #6294CB",
"Z+	c #6194CB",
"`+	c #6094CB",
" @	c #576E8B",
".@	c #3A69A5",
"+@	c #5C8FC7",
"@@	c #6093CA",
"#@	c #3465A3",
"$@	c #3465A4",
"                                                                                                ",
"                                                                                                ",
"                                                                        . + @ # $ % &           ",
"                        * = = - ; ; ; > > - , , , , = = = - = = - - - ' ) ) ! ! ! ! ~           ",
"                        { ! ! ! ! ! ! ! ! ! ! ! ! ! ! ! ! ! ! ! ! ! ! ! ! ! ! ! ! ! ]           ",
"                        ' , ' ' ' ' ^ ^ ^ ^ { { { { / / / / ! ! ! ! ! ! ! ! ! ! ! ! (           ",
"    _ : : : : : : : < . ' [ [ } | | | | | | | | | | | | | | | | | | | | | | | , ' ' 1           ",
"    2 3 4 4 4 4 4 4 4 5 ^ ] ~ 6 ( ( 7 7 7 7 8 8 8 8 6 6 6 6 ] ] ] ] ~ ~ ~ ~ 9 [ [ [ 0           ",
"    a b c c c c c c d e , f f _ d d d d d d d d d d d d | | | | | | | f ] ] ] ] ~ ~ g           ",
"    h i j j j j j j k l m n o p q q p p p p r r r r n n n n o o o o s t t t f f f f             ",
"    u v c c c c c c w x f y y z d d d d d d d d d d d d d d d d d d d d d d d A o o             ",
"      _ j j j j j j B , C D E F F F < < < < D D D D E E E E C C C C G G G G H x y G             ",
"      y c c c c c I J K : : L M M M M M M M M M M M M M M M M M M M M M M M N D E i             ",
"      } j j j j j O < P Q Q 2 2 2 2 2 Q Q Q Q A A A A R R R R N N N N } } } 0 : :               ",
"      S c c c c T U > _ V L T T T T T T T T T T T T T T T T T T T T T T M Q Q Q W               ",
"      0 X j j j % Y p u u g g u u u u Z Z Z Z ` ` ` ` ` ` ` `  . . . .....V V _ +.              ",
"      @.h c | d #.$.` %.&.*.*.*.*.*.*.*.*.*.*.*.*.*.*.*.*.*.*.h L g g g g u u u                 ",
"      : M =.-.;.>.f ,.,.&.c c c c c c &.&.&.&.,.,.,.,.'.'.'.'.).).).).%.%.%.%.!.                ",
"      A u ~.~.. {.R ).].^.^.^.^.^.^.^.^.^.^.^.^.^.^.^.^.^.^./././././././././.(.                ",
"      ,.T _.:.<.8 3 h [.}.|.|.|.|.|.|.|.|.|.|.|.|.|.|.|.|.|.|.|.|.|.|.|.|.|.|.|.|.|.|.|.|.|.    ",
"      ,...+.1.2.n L 3.4.5.6.7.7.7.7.7.7.7.7.7.7.7.7.7.7.8.8.9.0.0.0.a.a.b.b.b.c.b.b.b.b.d.e.    ",
"        c f.g.h.N Z i.j.k.l.l.l.l.l.l.l.l.m.m.m.m.m.m.n.n.o.o.o.p.p.q.q.q.r.r.r.s.s.t.u.v.w.    ",
"        _ x.y.$.....z.A.B.l.l.l.l.m.m.m.m.m.n.n.n.o.o.p.p.p.q.q.q.r.r.s.s.s.t.t.C.C.D.E.c.F.    ",
"        ).G.H.f _ _ I.J.K.m.m.m.m.m.n.n.o.o.o.p.p.q.q.q.r.r.r.s.s.t.t.t.C.C.C.u.u.D.L.M.N.      ",
"        2 % l y b W O.P.Q.n.n.n.o.o.p.p.p.q.q.q.r.r.s.s.s.t.t.C.C.C.u.u.u.D.D.D.R.E.M.S.T.      ",
"        U.e 2 v Q 2 V.W.X.o.p.p.p.q.q.r.r.r.s.s.t.t.t.C.C.C.u.u.D.D.D.D.D.Y.Y.Z.`.M.M. +.+      ",
"        h.e < N R ++@+#+$+q.q.r.r.s.s.s.t.t.t.C.C.u.u.u.D.D.D.D.D.Y.Y.Y.R.R.%+S.M.M.M.X.&+      ",
"        c *+D 0 =+-+;+>+r.s.s.t.t.t.C.C.C.u.u.D.D.D.D.D.D.Y.Y.R.R.R. + +,+L.M.M.M.M.M.'+        ",
"        %.*+F )+)+!+~+7.t.t.C.C.u.u.u.D.D.D.D.D.Y.Y.Y.R.R. + + +Z.Z.{+L.M.M.M.M.M.M.E.]+        ",
"        j B )+F F ^+/+X.u.u.D.D.D.D.D.D.Y.Y.R.R.R. + +Z.Z.Z.Z.{+%+L.M.M.M.M.M.M.M.M. +(+        ",
"        l _+W < < :+<+o.D.D.D.Y.Y.Y.R.R.Z.,+[+%+}+}+|+|+L.L.`.M.M.M.M.M.M.M.M.M.M.M.p.1+        ",
"        ;.2+3+ .4+5+6+D.Y.R.R. +[+7+L.S.M.M.M.M.M.M.M.M.M.M.M.M.M.M.M.M.M.M.M.M.M.S.8+          ",
"          + y.9+0+a+o. +Z.%+L.M.M.M.M.M.M.M.M.M.M.M.M.M.M.M.M.M.M.M.b+b+b+b+c+c+c+d+v.          ",
"          f.>.>.e+f+g+h+i+i+j+j+k+k+k+k+k+k+k+k+k+k+k+k+k+l+l+l+l+l+m+m+m+m+m+m+m+n+o+          ",
"          X + p+q+r+s+t+u+u+u+u+u+u+u+u+u+u+u+v+v+w+w+w+w+w+w+x+x+x+x+x+x+x+y+y+x+h+            ",
"          z+A+B+C+D+E+E+E+E+E+E+E+E+E+E+F+F+F+F+F+F+F+G+G+G+G+G+G+H+I+I+I+I+I+I+E+J+            ",
"          K+L+M+N+O+P+P+P+P+P+Q+Q+Q+Q+Q+Q+Q+Q+R+R+R+R+R+S+S+S+S+S+S+S+S+S+S+S+S+S+              ",
"          + T+U+V+W+X+X+X+X+X+X+X+X+X+X+Y+Y+Y+Z+Z+Z+Z+Z+Z+Z+Z+Z+Z+Z+Z+Z+Z+Z+Z+Z+`+              ",
"           @.@+@Z+Z+Z+Z+Z+Z+Z+Z+Z+Z+Z+Z+Z+Z+Z+Z+Z+Z+Z+Z+Z+Z+Z+Z+Z+Z+Z+Z+Z+Z+Z+@@                ",
"            #@$@$@$@$@$@$@$@$@$@$@$@$@$@$@$@$@$@$@$@$@$@$@$@$@$@$@$@$@$@$@$@$@                  ",
"                                                                                                ",
"                                                                                                ",
"                                                                                                ",
"                                                                                                ",
"                                                                                                ",
"                                                                                                ",
"                                                                                                ",
"                                                                                                "};
