/* XPM */
static char const * prev_xpm[] = {
"48 48 362 2",
"  	c None",
". 	c #3A7304",
"+ 	c #96BE6F",
"@ 	c #A8CB87",
"# 	c #C5DDAD",
"$ 	c #B5D498",
"% 	c #B1D391",
"& 	c #C5DEAD",
"* 	c #BEDAA5",
"= 	c #AFD28F",
"- 	c #93C167",
"; 	c #C5DEAE",
"> 	c #C4DDAD",
", 	c #A9CE86",
"' 	c #95C36B",
") 	c #C6DEAE",
"! 	c #A4CC7F",
"~ 	c #98C46E",
"{ 	c #95C26A",
"] 	c #C4DDAC",
"^ 	c #A1C97A",
"/ 	c #99C56F",
"( 	c #97C46D",
"_ 	c #94C269",
": 	c #92C166",
"< 	c #A8CA88",
"[ 	c #BFDAA4",
"} 	c #9DC875",
"| 	c #91C064",
"1 	c #B5D399",
"2 	c #B7D699",
"3 	c #9AC570",
"4 	c #96C36C",
"5 	c #8FBF61",
"6 	c #C3DDAB",
"7 	c #BDD9A2",
"8 	c #BBD9A0",
"9 	c #BAD89E",
"0 	c #B9D79D",
"a 	c #B8D69B",
"b 	c #B5D598",
"c 	c #B4D496",
"d 	c #B3D494",
"e 	c #B2D393",
"f 	c #B0D291",
"g 	c #AFD18F",
"h 	c #AACF89",
"i 	c #BDD8A2",
"j 	c #AED18E",
"k 	c #93C268",
"l 	c #8CBE5E",
"m 	c #8DBE5E",
"n 	c #8BBC5B",
"o 	c #88BB57",
"p 	c #86BA55",
"q 	c #83B851",
"r 	c #81B74E",
"s 	c #7FB64B",
"t 	c #7CB448",
"u 	c #7AB345",
"v 	c #78B242",
"w 	c #75B13E",
"x 	c #75B13D",
"y 	c #B0D290",
"z 	c #BFDAA5",
"A 	c #A5CC81",
"B 	c #91C065",
"C 	c #91C164",
"D 	c #90C062",
"E 	c #8FC060",
"F 	c #8EC05F",
"G 	c #8CBF5C",
"H 	c #8ABE5A",
"I 	c #88BD57",
"J 	c #86BB54",
"K 	c #83B94F",
"L 	c #80B74C",
"M 	c #7EB549",
"N 	c #7CB446",
"O 	c #7AB344",
"P 	c #78B241",
"Q 	c #75B03D",
"R 	c #73AF3A",
"S 	c #70AD36",
"T 	c #70AD35",
"U 	c #BEDAA4",
"V 	c #9CC674",
"W 	c #90C063",
"X 	c #90C161",
"Y 	c #90C160",
"Z 	c #8EC15F",
"` 	c #8EC15D",
" .	c #8CC15B",
"..	c #8CC059",
"+.	c #8ABF56",
"@.	c #88BD55",
"#.	c #85BC51",
"$.	c #83BA4E",
"%.	c #80B94B",
"&.	c #7DB648",
"*.	c #76B13E",
"=.	c #73AF3B",
"-.	c #71AE37",
";.	c #6FAD34",
">.	c #6FAC33",
",.	c #BAD89F",
"'.	c #94C268",
").	c #8DBF5F",
"!.	c #8EC05E",
"~.	c #8EC15C",
"{.	c #8EC15B",
"].	c #8CC15A",
"^.	c #8CC158",
"/.	c #8AC156",
"(.	c #88BF53",
"_.	c #86BF51",
":.	c #84BD4E",
"<.	c #82BC4C",
"[.	c #7FBA49",
"}.	c #7DB745",
"|.	c #7AB442",
"1.	c #77B23F",
"2.	c #74B03C",
"3.	c #71AE38",
"4.	c #6FAD35",
"5.	c #6DAC32",
"6.	c #6DAC31",
"7.	c #9AC174",
"8.	c #B2D392",
"9.	c #8CBD5C",
"0.	c #88BB58",
"a.	c #89BC59",
"b.	c #8ABD5A",
"c.	c #8BBF5A",
"d.	c #8CC05A",
"e.	c #8CC159",
"f.	c #8CC259",
"g.	c #8CC257",
"h.	c #8BC257",
"i.	c #8AC255",
"j.	c #89C153",
"k.	c #88C151",
"l.	c #85C04E",
"m.	c #84BE4C",
"n.	c #81BC49",
"o.	c #7FBB47",
"p.	c #7CB843",
"q.	c #79B640",
"r.	c #76B33C",
"s.	c #73AF39",
"t.	c #6EAC33",
"u.	c #6CAB30",
"v.	c #6CAB2F",
"w.	c #ADD08D",
"x.	c #A6CA84",
"y.	c #A8CD85",
"z.	c #84B953",
"A.	c #85B953",
"B.	c #86BA54",
"C.	c #87BB55",
"D.	c #88BD56",
"E.	c #89BE55",
"F.	c #8AC354",
"G.	c #89C352",
"H.	c #89C251",
"I.	c #88C350",
"J.	c #87C24E",
"K.	c #85C14C",
"L.	c #83BF48",
"M.	c #81BD47",
"N.	c #7EBC44",
"O.	c #7CB941",
"P.	c #79B73D",
"Q.	c #75B33A",
"R.	c #72B137",
"S.	c #6FAD33",
"T.	c #6AAA2D",
"U.	c #ACD08C",
"V.	c #AED08F",
"W.	c #9DC774",
"X.	c #81B74D",
"Y.	c #83B950",
"Z.	c #84BB50",
"`.	c #86BD51",
" +	c #87BF51",
".+	c #88C052",
"++	c #89C350",
"@+	c #88C44F",
"#+	c #87C44E",
"$+	c #81C144",
"%+	c #73BA2F",
"&+	c #69B41F",
"*+	c #60AF15",
"=+	c #5CAC0F",
"-+	c #58A90A",
";+	c #58A70B",
">+	c #58A70E",
",+	c #5BA714",
"'+	c #5EA618",
")+	c #62A820",
"!+	c #66A827",
"~+	c #68A92A",
"{+	c #68A92B",
"]+	c #ACD08B",
"^+	c #9DC577",
"/+	c #94C168",
"(+	c #7DB548",
"_+	c #7FB64A",
":+	c #81B94B",
"<+	c #82BB4C",
"[+	c #84BD4D",
"}+	c #84BE4D",
"|+	c #86C14D",
"1+	c #86C24D",
"2+	c #87C34D",
"3+	c #7FC040",
"4+	c #71BA2B",
"5+	c #65B517",
"6+	c #5DB10D",
"7+	c #5DB00C",
"8+	c #5CAF0C",
"9+	c #5BAE0C",
"0+	c #5AAC0B",
"a+	c #59AA0B",
"b+	c #57A80A",
"c+	c #55A509",
"d+	c #54A308",
"e+	c #52A008",
"f+	c #509D07",
"g+	c #519C0A",
"h+	c #5AA117",
"i+	c #A8CE86",
"j+	c #88B75C",
"k+	c #8CBE5D",
"l+	c #5DA21B",
"m+	c #65A726",
"n+	c #6EAE31",
"o+	c #76B43B",
"p+	c #7AB840",
"q+	c #7BBA3F",
"r+	c #79BA3A",
"s+	c #75B932",
"t+	c #6CB726",
"u+	c #61B214",
"v+	c #5EB20D",
"w+	c #5FB30D",
"x+	c #5FB40D",
"y+	c #5FB40E",
"z+	c #5AAD0B",
"A+	c #53A208",
"B+	c #519F07",
"C+	c #4F9B06",
"D+	c #509B09",
"E+	c #A1CA7B",
"F+	c #59A014",
"G+	c #519E07",
"H+	c #59AB0B",
"I+	c #5EB30D",
"J+	c #60B50E",
"K+	c #61B60E",
"L+	c #61B70E",
"M+	c #62B80E",
"N+	c #60B60E",
"O+	c #58AA0B",
"P+	c #56A70A",
"Q+	c #54A409",
"R+	c #9BC671",
"S+	c #62A91F",
"T+	c #5BAD0B",
"U+	c #63B90F",
"V+	c #63BA0F",
"W+	c #64BB0F",
"X+	c #62B80F",
"Y+	c #56A509",
"Z+	c #519C09",
"`+	c #9EC974",
" @	c #6EB22D",
".@	c #65BC10",
"+@	c #65BD10",
"@@	c #66BE10",
"#@	c #64BB10",
"$@	c #57A70A",
"%@	c #529D0A",
"&@	c #9ECA73",
"*@	c #7CBC3E",
"=@	c #5BAD0C",
"-@	c #66BF11",
";@	c #67C111",
">@	c #68C111",
",@	c #67C011",
"'@	c #64BC10",
")@	c #58A80A",
"!@	c #53A108",
"~@	c #529E0A",
"{@	c #98C76C",
"]@	c #89C54F",
"^@	c #5FB20E",
"/@	c #67BF11",
"(@	c #68C211",
"_@	c #69C412",
":@	c #6AC412",
"<@	c #6FC619",
"[@	c #6EC519",
"}@	c #6DC318",
"|@	c #6BC017",
"1@	c #69BD17",
"2@	c #67BA17",
"3@	c #64B616",
"4@	c #62B315",
"5@	c #60B014",
"6@	c #5DAD12",
"7@	c #5BA911",
"8@	c #58A510",
"9@	c #59A212",
"0@	c #95CD5F",
"a@	c #65B914",
"b@	c #6BC713",
"c@	c #6DC814",
"d@	c #B3E285",
"e@	c #AEE07D",
"f@	c #ADDE7D",
"g@	c #ACDC7C",
"h@	c #AADB7C",
"i@	c #A9D97B",
"j@	c #A8D77B",
"k@	c #A7D57A",
"l@	c #A5D37A",
"m@	c #A4D179",
"n@	c #A2CF78",
"o@	c #A1CC78",
"p@	c #9FCA77",
"q@	c #9CC773",
"r@	c #A0D46E",
"s@	c #6DC01D",
"t@	c #69C312",
"u@	c #6DC914",
"v@	c #6FCB15",
"w@	c #B3E384",
"x@	c #A6D976",
"y@	c #77C728",
"z@	c #6AC512",
"A@	c #6DC813",
"B@	c #6FCC14",
"C@	c #71CE16",
"D@	c #B4E585",
"E@	c #A9DA78",
"F@	c #80CE35",
"G@	c #6DC913",
"H@	c #70CD15",
"I@	c #73D117",
"J@	c #B5E685",
"K@	c #A7D976",
"L@	c #90D64C",
"M@	c #72CF16",
"N@	c #9FD36D",
"O@	c #99DA59",
"P@	c #71CD18",
"Q@	c #B4E484",
"R@	c #94CA60",
"S@	c #A0DC65",
"T@	c #B3E284",
"U@	c #B2E183",
"                                                                                                ",
"                                                                                                ",
"                                                                                                ",
"                                                                                                ",
"                                                                                                ",
"                                                                                                ",
"                                                                                                ",
"                                                    .                                           ",
"                                                  +                                             ",
"                                                @ #                                             ",
"                                              $ % &                                             ",
"                                            * = - ;                                             ",
"                                          > , ' - ;                                             ",
"                                        ) ! ~ { - &                                             ",
"                                      ] ^ / ( _ : &                                             ",
"                                  < [ } / ( { - | ]   . . . . . . . . . . . .                   ",
"                                1 2 3 ~ 4 { - | 5 6 7 8 9 0 a 2 b c d e f g h                   ",
"                              i j ( ' { k : | 5 l 5 m n o p q r s t u v w x y                   ",
"                            z A k - - B C D E F G H I J K L M N O P Q R S T g                   ",
"                          U V W W W D X Y Z `  ...+.@.#.$.%.&.O v *.=.-.;.>.g                   ",
"                        ,.'.l l l ).!.` ~.{.].^./.(._.:.<.[.}.|.1.2.3.4.5.6.j                   ",
"                    7.8.9.0.a.a.b.c.d.e.f.g.h.i.j.k.l.m.n.o.p.q.r.s.S t.u.v.w.                  ",
"                  x.y.z.A.B.B.C.D.E./.i.i.F.G.H.I.J.K.L.M.N.O.P.Q.R.S.u.T.T.U.                  ",
"                V.W.s X.r r Y.Z.`. +.+k.H.++@+#+$+%+&+*+=+-+;+>+,+'+)+!+~+{+]+                  ",
"                ^+/+N (+M _+:+<+[+}+|+1+2+3+4+5+6+6+7+8+9+0+a+b+c+d+e+f+g+h+i+                  ",
"                  j+k+l+m+n+o+p+q+r+s+t+u+v+w+x+y+x+x+v+6+8+z+a+b+c+A+B+C+D+E+                  ",
"                      k F+G+A+c+b+H+9+7+I+J+K+L+M+L+L+N+x+v+8+z+O+P+Q+e+f+D+E+                  ",
"                        R+S+Q+P+a+T+7+I+J+L+U+V+W+W+V+X+L+y+v+8+0+-+Y+A+B+Z+E+                  ",
"                          `+ @-+0+8+v+J+X+V+.@+@@@@@+@#@U+L+x+6+9+a+$@Q+e+%@E+                  ",
"                            &@*@=@6+x+L+V++@-@;@>@>@,@@@'@U+K+I+8+0+)@c+!@~@E+                  ",
"                              {@]@^@N+U+.@/@(@_@:@<@[@}@|@1@2@3@4@5@6@7@8@9@E+                  ",
"                                Y 0@a@W+@@(@:@b@c@d@e@f@g@h@i@j@k@l@m@n@o@p@q@                  ",
"                                    r@s@,@t@b@u@v@w@  . . . . . . . . . . . .                   ",
"                                      x@y@z@A@B@C@D@                                            ",
"                                        E@F@G@H@I@J@                                            ",
"                                          K@L@B@M@D@                                            ",
"                                            N@O@P@Q@                                            ",
"                                              R@S@T@                                            ",
"                                                  U@                                            ",
"                                                                                                ",
"                                                    .                                           ",
"                                                                                                ",
"                                                                                                ",
"                                                                                                ",
"                                                                                                ",
"                                                                                                ",
"                                                                                                ",
"                                                                                                "};
