/* XPM */
static char const * search_xpm[] = {
"48 48 166 2",
"  	c None",
". 	c #BBBBBB",
"+ 	c #E0E0E0",
"@ 	c #EEEEEE",
"# 	c #F5F5F5",
"$ 	c #F9F9F9",
"% 	c #F4F4F4",
"& 	c #EDEDED",
"* 	c #DDDDDD",
"= 	c #B7B7B7",
"- 	c #E2E2E2",
"; 	c #FCFCFC",
"> 	c #F7F7F7",
", 	c #ECECEC",
"' 	c #E7E7E7",
") 	c #E4E4E4",
"! 	c #E1E1E1",
"~ 	c #E8E8E8",
"{ 	c #EFEFEF",
"] 	c #FAFAFA",
"^ 	c #FBFBFB",
"/ 	c #DCDCDC",
"( 	c #D6D6D6",
"_ 	c #DFDFDF",
": 	c #DBDBDC",
"< 	c #B9C3D0",
"[ 	c #9AADC6",
"} 	c #87A0C0",
"| 	c #7B98BC",
"1 	c #8BA3C1",
"2 	c #9EB1C8",
"3 	c #C6CCD4",
"4 	c #CFCFCF",
"5 	c #F6F6F6",
"6 	c #CFD3D8",
"7 	c #7F9BBE",
"8 	c #416FA8",
"9 	c #96ABC5",
"0 	c #DADBDC",
"a 	c #E5E5E5",
"b 	c #F1F1F1",
"c 	c #95AAC4",
"d 	c #B2BFCE",
"e 	c #999999",
"f 	c #F2F2F2",
"g 	c #D8D9DB",
"h 	c #7191B9",
"i 	c #97ABC6",
"j 	c #F8F8F8",
"k 	c #E6E6E6",
"l 	c #DADADA",
"m 	c #6C8DB8",
"n 	c #99ADC6",
"o 	c #D5D5D5",
"p 	c #8CA4C2",
"q 	c #B6C1CF",
"r 	c #A7A7A7",
"s 	c #C8CED6",
"t 	c #DADBDB",
"u 	c #DEDEDE",
"v 	c #6F8FB8",
"w 	c #9DB0C8",
"x 	c #F3F3F3",
"y 	c #BEBEBE",
"z 	c #D5D7DA",
"A 	c #C3C3C3",
"B 	c #D9D9D9",
"C 	c #A4B5C9",
"D 	c #7E9ABD",
"E 	c #ABB9CC",
"F 	c #9A9A9A",
"G 	c #949494",
"H 	c #6A8CB7",
"I 	c #A4A4A4",
"J 	c #989898",
"K 	c #E3E3E3",
"L 	c #5C82B3",
"M 	c #A9A9A9",
"N 	c #979797",
"O 	c #688BB6",
"P 	c #98ACC6",
"Q 	c #A5A5A5",
"R 	c #A9B8CB",
"S 	c #9D9D9D",
"T 	c #A1B3C9",
"U 	c #CCD0D6",
"V 	c #929292",
"W 	c #CBCBCB",
"X 	c #D3D5D9",
"Y 	c #EBEBEB",
"Z 	c #CECECE",
"` 	c #AAAAAA",
" .	c #688AB6",
"..	c #E9E9E9",
"+.	c #B0B0B0",
"@.	c #C3CAD4",
"#.	c #819CBE",
"$.	c #ADBBCC",
"%.	c #B3B3B3",
"&.	c #DDDEDE",
"*.	c #6186B4",
"=.	c #D7D7D7",
"-.	c #A8A8A8",
";.	c #D5D8DB",
">.	c #869FC0",
",.	c #A7B6CA",
"'.	c #828282",
").	c #BCBCBC",
"!.	c #C8CED5",
"~.	c #7090B8",
"{.	c #909090",
"].	c #878787",
"^.	c #AFAFAF",
"/.	c #D8DADB",
"(.	c #ACBACC",
"_.	c #8AA2C1",
":.	c #7796BB",
"<.	c #6B8DB7",
"[.	c #90A7C3",
"}.	c #DEDEDF",
"|.	c #EAEAEA",
"1.	c #BFBFBF",
"2.	c #A2A2A2",
"3.	c #8F8F8F",
"4.	c #8C8C8C",
"5.	c #9C9C9C",
"6.	c #C9C9C9",
"7.	c #FDFDFD",
"8.	c #F0F0F0",
"9.	c #C1C1C1",
"0.	c #7F7F7F",
"a.	c #D4D4D4",
"b.	c #A1A1A1",
"c.	c #ACACAC",
"d.	c #939393",
"e.	c #8A8A8A",
"f.	c #959595",
"g.	c #A3A3A3",
"h.	c #C0C0C0",
"i.	c #B5B5B5",
"j.	c #A0A0A0",
"k.	c #969696",
"l.	c #B2B2B2",
"m.	c #B9B9B9",
"n.	c #B1B1B1",
"o.	c #898989",
"p.	c #9F9F9F",
"q.	c #636363",
"r.	c #B8B8B8",
"s.	c #8B8B8B",
"t.	c #9B9B9B",
"u.	c #727272",
"v.	c #8E8E8E",
"w.	c #7C7C7C",
"x.	c #919191",
"y.	c #B4B4B4",
"z.	c #ADADAD",
"A.	c #A6A6A6",
"B.	c #868686",
"C.	c #9E9E9E",
"D.	c #ABABAB",
"E.	c #787878",
"F.	c #696969",
"G.	c #D2D2D2",
"H.	c #D1D1D1",
"I.	c #5C5C5C",
"                                                                                                ",
"                                                                                                ",
"                                                                                                ",
"                            . + @ # $ % & * =                                                   ",
"                        - ; > , ' ) ! ) ~ { ] ^ /                                               ",
"                    ( ; { _ : < [ } | 1 2 3 / - % ] 4                                           ",
"                  , 5 + 6 7 8                 9 0 a ^ a                                         ",
"                # b * c                           d _ > @ e                                     ",
"              @ f g h                               i * j k                                     ",
"            l 5 * m                                   n + ^ o                                   ",
"            ] + p                                       q ~ j r                                 ",
"          ! , s                                           t j !                                 ",
"          % u v                                           w k x r                               ",
"        y , z                                               * 5 A                               ",
"        B ) C                                               6 & !                               ",
"        a + D                                               E ~ a F                             ",
"      G a u H                                               n ) k I                             ",
"      J K * L                                               1 ! a M                             ",
"      N a _ O                                               P ! ! Q                             ",
"        k ! |                                               R ! + S                             ",
"        K k T                                               U k _ V                             ",
"        W @ X                                               * Y Z                               ",
"        ` x +  .                                          9 ) ..+.                              ",
"          ..{ @.                                          0 b +                                 ",
"          . $ K #.                                      $...@ %.                                ",
"            ) ] &.*.                                    K j =.                                  ",
"            -.@ 5 ;.                                  ! ^ a J                                   ",
"              = f > &.>.                          ,.) ^ Y ' K A '.                              ",
"                ).& ^ ' !.~.                    z , ; k ~ Z {.V I ].                            ",
"                  ^.) j > ' /.(._.:.<.| [.< }.|.^ % / 1.K +.2.3.4.Q 3.                          ",
"                    5.6.~ 5 7.% { Y .., 8.> 7.x ) 9.0.G a.b.c.Q d.e.Q f.                        ",
"                        g.A / ~ , 8.f { Y k l h.3.      . i.j.` M k.e.g.e                       ",
"                              I l.. h.m.n.2.              2.= j.r c.e o.p.5.q.                  ",
"                                                            p.r.g.Q ^.S s.t.p.u.                ",
"                                                              F = I g.+.j.v.G 2.w.              ",
"                                                                x.y.M j.z.I x.G A.].            ",
"                                                                  B.^.c.C.D.r f.{.M G           ",
"                                                                    E.z.^.S -.D.C.6...i.        ",
"                                                                      F.M l.S r G./ u |.F.      ",
"                                                                          I y.n./ / / ' B.      ",
"                                                                            j.H._ / _ k         ",
"                                                                              g.~ ~ k v.        ",
"                                                                                I.E.            ",
"                                                                                                ",
"                                                                                                ",
"                                                                                                ",
"                                                                                                ",
"                                                                                                "};
