/* XPM */
static char const* crossh_xpm[] = {
"32 32 21 1",
" 	c None",
".	c #0A0A0A",
"+	c #5A5A5A",
"@	c #131313",
"#	c #151515",
"$	c #FFFFFF",
"%	c #3A3A3A",
"&	c #050505",
"*	c #141414",
"=	c #303030",
"-	c #0B0B0B",
";	c #505050",
">	c #8A8A8A",
",	c #000000",
"'	c #0E0E0E",
")	c #313131",
"!	c #4E4E4E",
"~	c #747474",
"{	c #1A1A1A",
"]	c #848484",
"^	c #1C1C1C",
"                                ",
"                                ",
"                                ",
"                                ",
"                                ",
"                                ",
"                                ",
"              .+@               ",
"              #$%               ",
"              #$%               ",
"              #$%               ",
"              #$%               ",
"              #$%               ",
"              #$%               ",
"       &******=$+******-        ",
"       ;$$$$$$$$$$$$$$$>,       ",
"       '))))))!$~)))))){,       ",
"              *$%               ",
"              #$%               ",
"              #$%               ",
"              #$%               ",
"              #$%               ",
"              #$%               ",
"              ']^               ",
"               ,,               ",
"                                ",
"                                ",
"                                ",
"                                ",
"                                ",
"                                ",
"                                "};
