/* XPM */
static char const* e_xpm[] = {
"32 32 39 1",
" 	c None",
".	c #0D0D0D",
"+	c #000000",
"@	c #090909",
"#	c #B9B9B9",
"$	c #CCCCCC",
"%	c #313131",
"&	c #EBEBEB",
"*	c #FFFFFF",
"=	c #444444",
"-	c #010101",
";	c #040404",
">	c #030303",
",	c #8E8E8E",
"'	c #C7C7C7",
")	c #C5C5C5",
"!	c #070707",
"~	c #D3D3D3",
"{	c #0B0B0B",
"]	c #6F6F6F",
"^	c #DDDDDD",
"/	c #E6E6E6",
"(	c #F6F6F6",
"_	c #808080",
":	c #EFEFEF",
"<	c #565656",
"[	c #AAAAAA",
"}	c #AFAFAF",
"|	c #FBFBFB",
"1	c #939393",
"2	c #F2F2F2",
"3	c #0A0A0A",
"4	c #CACACA",
"5	c #999999",
"6	c #5D5D5D",
"7	c #020202",
"8	c #888888",
"9	c #202020",
"0	c #0C0C0C",
"                                ",
"                                ",
"                                ",
"                                ",
"                                ",
"                                ",
"                    .++@        ",
"                    +#$%+       ",
"                    +&*=+       ",
"               -;   +&*=+       ",
"               +->  +&*=+       ",
"               +,@> +&*=+       ",
"               +')@>+&*=+       ",
"      !++++++++-~*)@+&*=+       ",
"      {]^^^^^^^/***)%(*=+       ",
"      {_***************=+       ",
"      {_************:**=+       ",
"      {<[[[[[[[}|**1>2*=+       ",
"      !33333333+4*1++&*=+       ",
"               +'5>++&*=+       ",
"               +6>  +&*=+       ",
"               +7   +&*=+       ",
"               7    +&*=+       ",
"                    +&*=+       ",
"                    -859+       ",
"                     0{!        ",
"                                ",
"                                ",
"                                ",
"                                ",
"                                ",
"                                "};
