/* XPM */
static char const* fleur_xpm[] = {
"32 32 80 1",
" 	c None",
".	c #090909",
"+	c #5D5D5D",
"@	c #111111",
"#	c #6D6D6D",
"$	c #FFFFFF",
"%	c #D9D9D9",
"&	c #131313",
"*	c #080808",
"=	c #4F4F4F",
"-	c #DDDDDD",
";	c #FBFBFB",
">	c #EAEAEA",
",	c #B5B5B5",
"'	c #000000",
")	c #060606",
"!	c #070707",
"~	c #030303",
"{	c #8B8B8B",
"]	c #828282",
"^	c #020202",
"/	c #242424",
"(	c #373737",
"_	c #010101",
":	c #040404",
"<	c #0A0A0A",
"[	c #050505",
"}	c #0B0B0B",
"|	c #7D7D7D",
"1	c #3E3E3E",
"2	c #343434",
"3	c #A9A9A9",
"4	c #D4D4D4",
"5	c #101010",
"6	c #0D0D0D",
"7	c #585858",
"8	c #2F2F2F",
"9	c #0C0C0C",
"0	c #4D4D4D",
"a	c #F2F2F2",
"b	c #FDFDFD",
"c	c #B2B2B2",
"d	c #AAAAAA",
"e	c #202020",
"f	c #E5E5E5",
"g	c #676767",
"h	c #7B7B7B",
"i	c #DADADA",
"j	c #7F7F7F",
"k	c #151515",
"l	c #575757",
"m	c #CDCDCD",
"n	c #9E9E9E",
"o	c #EEEEEE",
"p	c #C4C4C4",
"q	c #CCCCCC",
"r	c #232323",
"s	c #A8A8A8",
"t	c #0F0F0F",
"u	c #919191",
"v	c #515151",
"w	c #D8D8D8",
"x	c #686868",
"y	c #CECECE",
"z	c #535353",
"A	c #979797",
"B	c #464646",
"C	c #787878",
"D	c #D0D0D0",
"E	c #E0E0E0",
"F	c #838383",
"G	c #505050",
"H	c #888888",
"I	c #D3D3D3",
"J	c #989898",
"K	c #848484",
"L	c #BFBFBF",
"M	c #FCFCFC",
"N	c #555555",
"O	c #BCBCBC",
"                                ",
"                                ",
"                                ",
"               .                ",
"              .+@               ",
"             .#$%&*             ",
"            .#$$$%&*            ",
"           .=-;$$>,*            ",
"          ')!~{$$*)!~           ",
"             *]$$^              ",
"        )    *//(_     )        ",
"       :<     *  [     '}       ",
"      )|<      '       12}      ",
"     )34~55< 6678<  95.0a2}     ",
"    )3$bcde  6f$$g6 <hdi$a2}    ",
"   :j$$$$$k  l$$$m} 5n$$$$o9    ",
"    .p$$4qr  8$$$st 9uqo$;v}    ",
"     .pw_!!) <xyst  [!:z;v}     ",
"      .A<     9}t      Bv}      ",
"       ~<              ^}       ",
"        )    *_}['     *        ",
"             *CDE^              ",
"           }})F$$^.}*           ",
"           ^GHI$$JKt9           ",
"            .L$$$MN}            ",
"             .L$MN<             ",
"              .ON<              ",
"               ^}               ",
"                                ",
"                                ",
"                                ",
"                                "};
