/* XPM */
static char const* help_xpm[] = {
"32 32 126 2",
"  	c None",
". 	c #010101",
"+ 	c #030303",
"@ 	c #000000",
"# 	c #020202",
"$ 	c #010201",
"% 	c #134926",
"& 	c #289950",
"* 	c #30BB62",
"= 	c #2EB35E",
"- 	c #228345",
"; 	c #0B2C17",
"> 	c #4C4C4C",
", 	c #616161",
"' 	c #092413",
") 	c #34C96A",
"! 	c #42FF86",
"~ 	c #29A054",
"{ 	c #030A05",
"] 	c #4E4E4E",
"^ 	c #FEFEFE",
"/ 	c #737373",
"( 	c #041008",
"_ 	c #39DE75",
": 	c #2DAC5A",
"< 	c #4D4D4D",
"[ 	c #FFFFFF",
"} 	c #888888",
"| 	c #1F773F",
"1 	c #41FD85",
"2 	c #2AA155",
"3 	c #1C6B38",
"4 	c #27954E",
"5 	c #41FB84",
"6 	c #0D331B",
"7 	c #4A4A4A",
"8 	c #969696",
"9 	c #30B961",
"0 	c #196133",
"a 	c #2AA456",
"b 	c #1A6535",
"c 	c #484848",
"d 	c #AEAEAE",
"e 	c #050505",
"f 	c #2FB55F",
"g 	c #000101",
"h 	c #2DAE5B",
"i 	c #185C30",
"j 	c #474747",
"k 	c #BDBDBD",
"l 	c #0A0A0A",
"m 	c #040404",
"n 	c #0A2614",
"o 	c #40F882",
"p 	c #42FE85",
"q 	c #092212",
"r 	c #444444",
"s 	c #CACACA",
"t 	c #101010",
"u 	c #2BA758",
"v 	c #D5D5D5",
"w 	c #181818",
"x 	c #248B49",
"y 	c #33C668",
"z 	c #040E07",
"A 	c #424242",
"B 	c #EEEEEE",
"C 	c #DCDCDC",
"D 	c #FAFAFA",
"E 	c #DEDEDE",
"F 	c #212121",
"G 	c #16562D",
"H 	c #35CD6C",
"I 	c #3F3F3F",
"J 	c #565656",
"K 	c #1D1D1D",
"L 	c #2B2B2B",
"M 	c #3EEE7D",
"N 	c #06180D",
"O 	c #3D3D3D",
"P 	c #F0F0F0",
"Q 	c #656565",
"R 	c #E7E7E7",
"S 	c #A6A6A6",
"T 	c #060606",
"U 	c #0F3B1F",
"V 	c #3EF07E",
"W 	c #289B51",
"X 	c #3C3C3C",
"Y 	c #5C5C5C",
"Z 	c #7A7A7A",
"` 	c #FBFBFB",
" .	c #1C1C1C",
"..	c #030B06",
"+.	c #092111",
"@.	c #010302",
"#.	c #393939",
"$.	c #ACACAC",
"%.	c #111111",
"&.	c #F7F7F7",
"*.	c #919191",
"=.	c #071C0F",
"-.	c #134A27",
";.	c #05130A",
">.	c #232323",
",.	c #A1A1A1",
"'.	c #F4F4F4",
").	c #0F0F0F",
"!.	c #0E381D",
"~.	c #40F681",
"{.	c #3DEA7B",
"].	c #081F10",
"^.	c #2F2F2F",
"/.	c #7D7D7D",
"(.	c #26944E",
"_.	c #1F763E",
":.	c #C8C8C8",
"<.	c #E9E9E9",
"[.	c #1C6E3A",
"}.	c #144C28",
"|.	c #5B5B5B",
"1.	c #676767",
"2.	c #010503",
"3.	c #217E42",
"4.	c #1B6A38",
"5.	c #B1B1B1",
"                                                                ",
"                                                                ",
"                                                                ",
"                                                                ",
"      . +                         @ @ @ @ @ @                   ",
"      . . #                   @ $ % & * = - ; @ @               ",
"      . > , @               @ ' ) ! ! ! ! ! ! ~ { @             ",
"      @ ] ^ / @ @         @ ( _ ! ! ! ! ! ! ! ! : @             ",
"      @ < [ [ } @ @       @ | ! ! 1 2 3 4 5 ! ! ! 6 @           ",
"      @ 7 [ [ [ 8 . #     @ 9 ! ! 0 @ @ @ a ! ! ! b @           ",
"      @ c [ [ [ [ d e +   @ % f - g @   @ h ! ! ! i @           ",
"      @ j [ [ [ [ [ k l m   @ @ @ @   @ n o ! ! p q @           ",
"      @ r [ [ [ [ [ [ s t e         @ $ * ! ! ! u @             ",
"      @ r [ [ [ [ [ [ [ v w m       @ x ! ! ! y z @             ",
"      @ A [ [ [ [ [ B C D E F m   @ G ! ! ! H z @               ",
"      @ I [ [ [ [ [ J @ + K L @ m @ ~ ! ! M N @                 ",
"      @ O [ P Q R [ S @ @ @ @ T + @ U V ! W @                   ",
"      @ X [ Y @ Z [ `  ..           @ ..+.@.@                   ",
"      @ #.$.@ @ %.&.[ *..         @ =.-.;.@                     ",
"      @ >.t +   @ ,.[ '.).@     @ !.~.! {.].@                   ",
"      @ @ m     + ^.[ [ /.+     @ (.! ! ! _.@                   ",
"      @ @         @ :.[ <.T @   @ [.! ! ! }.@                   ",
"        @         m |.[ [ 1.T   @ 2.3.f 4.@                     ",
"                  @ e E 5. .e     @ @ @ @                       ",
"                    m @ @ m                                     ",
"                                                                ",
"                                                                ",
"                                                                ",
"                                                                ",
"                                                                ",
"                                                                ",
"                                                                "};
