/* XPM */
static char const* n_xpm[] = {
"32 32 33 1",
" 	c None",
".	c #0B0B0B",
"+	c #181818",
"@	c #2B2B2B",
"#	c #191919",
"$	c #080808",
"%	c #AFAFAF",
"&	c #FFFFFF",
"*	c #B4B4B4",
"=	c #060606",
"-	c #ACACAC",
";	c #B1B1B1",
">	c #000000",
",	c #161616",
"'	c #FEFEFE",
")	c #1A1A1A",
"!	c #989898",
"~	c #9D9D9D",
"{	c #010101",
"]	c #020202",
"^	c #959595",
"/	c #9E9E9E",
"(	c #767676",
"_	c #DDDDDD",
":	c #E3E3E3",
"<	c #7B7B7B",
"[	c #CECECE",
"}	c #D3D3D3",
"|	c #C3C3C3",
"1	c #C8C8C8",
"2	c #757575",
"3	c #999999",
"4	c #787878",
"                                ",
"                                ",
"                                ",
"                                ",
"                                ",
"                                ",
"      .+@@@@@@@@@@@@@@@@#.      ",
"      $%&&&&&&&&&&&&&&&&*=      ",
"      $-&&&&&&&&&&&&&&&&;=      ",
"      $>>>>>>>,'&)>>>>>>>$      ",
"            >>!&&~{>            ",
"            ]^&&&&/]>           ",
"           ]^&&&&&&/]           ",
"          ](_:&&&&:_<{          ",
"         {>>>>[&&}>>>>{         ",
"             ]|&&1>             ",
"             ]|&&1>             ",
"             ]|&&1>             ",
"             ]|&&1>             ",
"             ]|&&1>             ",
"             ]|&&1>             ",
"             ]|&&1>             ",
"             ]2334>             ",
"             $....$             ",
"                                ",
"                                ",
"                                ",
"                                ",
"                                ",
"                                ",
"                                ",
"                                "};
