/* XPM */
static char const* ne_xpm[] = {
"32 32 53 1",
" 	c None",
".	c #080808",
"+	c #060606",
"@	c #070707",
"#	c #3C3C3C",
"$	c #888888",
"%	c #3D3D3D",
"&	c #0A0A0A",
"*	c #7B7B7B",
"=	c #FFFFFF",
"-	c #A0A0A0",
";	c #616161",
">	c #CCCCCC",
",	c #CFCFCF",
"'	c #FDFDFD",
")	c #050505",
"!	c #000000",
"~	c #B3B3B3",
"{	c #ACACAC",
"]	c #030303",
"^	c #363636",
"/	c #121212",
"(	c #414141",
"_	c #F6F6F6",
":	c #4F4F4F",
"<	c #040404",
"[	c #ADADAD",
"}	c #9F9F9F",
"|	c #434343",
"1	c #232323",
"2	c #FAFAFA",
"3	c #212121",
"4	c #E5E5E5",
"5	c #AEAEAE",
"6	c #AFAFAF",
"7	c #222222",
"8	c #E6E6E6",
"9	c #F1F1F1",
"0	c #444444",
"a	c #F7F7F7",
"b	c #343434",
"c	c #424242",
"d	c #474747",
"e	c #020202",
"f	c #0C0C0C",
"g	c #6D6D6D",
"h	c #747474",
"i	c #B0B0B0",
"j	c #171717",
"k	c #656565",
"l	c #999999",
"m	c #5C5C5C",
"n	c #090909",
"                                ",
"                                ",
"                                ",
"                                ",
"                                ",
"       .................+       ",
"      @#$$$$$$$$$$$$$$$$%.      ",
"      &*================-@      ",
"      .;>>>>>>>>>>>>>,'=-@      ",
"       )!!!!!!!!!!!!!!~=-@      ",
"                     ){=-@      ",
"         !!!!!!!!!!  ){=-@      ",
"         ]!^%%%%%%/! ){=-@      ",
"          )(_=====:! <[=}@      ",
"           )|'====:! <[=-@      ",
"           +12====:! <[=-@      ",
"          +34=====:! <5=}@      ",
"         +34======:! <6=}@      ",
"        +78===9^0a:! <5=}@      ",
"       +78===9b@)cd! <6=}@      ",
"      ef4===9b@  +!! <6=}@      ",
"       <g==9b@    )! <6=}@      ",
"        ]h9b@        <i=}@      ",
"         ]j@         @klm&      ",
"          <           ..n       ",
"                                ",
"                                ",
"                                ",
"                                ",
"                                ",
"                                ",
"                                "};
