/* XPM */
static char const* nesw_xpm[] = {
"32 32 43 1",
" 	c None",
".	c #000000",
"+	c #060606",
"@	c #070707",
"#	c #222222",
"$	c #C3C3C3",
"%	c #CCCCCC",
"&	c #8E8E8E",
"*	c #050505",
"=	c #414141",
"-	c #F6F6F6",
";	c #FFFFFF",
">	c #B1B1B1",
",	c #898989",
"'	c #2D2D2D",
")	c #EDEDED",
"!	c #303030",
"~	c #EFEFEF",
"{	c #DEDEDE",
"]	c #797979",
"^	c #040404",
"/	c #2F2F2F",
"(	c #1A1A1A",
"_	c #010101",
":	c #404040",
"<	c #A8A8A8",
"[	c #2C2C2C",
"}	c #151515",
"|	c #ADADAD",
"1	c #696969",
"2	c #AEAEAE",
"3	c #FEFEFE",
"4	c #A2A2A2",
"5	c #F0F0F0",
"6	c #E1E1E1",
"7	c #1C1C1C",
"8	c #DFDFDF",
"9	c #959595",
"0	c #6C6C6C",
"a	c #999999",
"b	c #989898",
"c	c #212121",
"d	c #080808",
"                                ",
"                                ",
"                                ",
"                                ",
"                                ",
"                                ",
"                                ",
"             ..........+        ",
"              @#$%%%%%&*        ",
"               @=-;;;;>*        ",
"                .,;;;;>*        ",
"               @');;;;>*        ",
"              @');;;;;>*        ",
"       .     @!~;;;{]->*        ",
"       *^   @/~;;;{(_:<*        ",
"       +[^ @/~;;;{(+ @}*        ",
"       +|1.!~;;;{(+   @^        ",
"       +2345;;;{(+     .        ",
"       +2;;;;;67+               ",
"       +2;;;;8(+                ",
"       +2;;;;9.                 ",
"       +2;;;;30^                ",
"       +1aaaaabc^               ",
"       @dddddddd@.              ",
"                                ",
"                                ",
"                                ",
"                                ",
"                                ",
"                                ",
"                                ",
"                                "};
