/* XPM */
static char const* ns_xpm[] = {
"32 32 25 1",
" 	c None",
".	c #020202",
"+	c #040404",
"@	c #B4B4B4",
"#	c #9D9D9D",
"$	c #FFFFFF",
"%	c #030303",
"&	c #A8A8A8",
"*	c #EEEEEE",
"=	c #F3F3F3",
"-	c #F1F1F1",
";	c #898989",
">	c #010101",
",	c #000000",
"'	c #ECECEC",
")	c #CBCBCB",
"!	c #E2E2E2",
"~	c #BDBDBD",
"{	c #050505",
"]	c #CDCDCD",
"^	c #A2A2A2",
"/	c #F5F5F5",
"(	c #828282",
"_	c #B0B0B0",
":	c #999999",
"                                ",
"                                ",
"                                ",
"                                ",
"                                ",
"             .+.                ",
"            .+@#.               ",
"           .+@$$#.              ",
"          .+@$$$$#.             ",
"         .+@$$$$$$#.            ",
"        .%&*=$$$$-*;>           ",
"        ,,,,%'$$),,,,>          ",
"            ,!$$~>              ",
"            ,!$$~>              ",
"            ,!$$~>              ",
"            ,!$$~>              ",
"            ,!$$~>              ",
"            ,!$$~>              ",
"            ,!$$~>              ",
"            ,!$$~>              ",
"        ,,,,{'$$]>,,,>          ",
"        ..^*/$$$$=*(.           ",
"         .%_$$$$$$:.,           ",
"          .%_$$$$:.,            ",
"           .%_$$:.,             ",
"            .%_:.,              ",
"             .%.                ",
"              ,                 ",
"                                ",
"                                ",
"                                ",
"                                "};
