/* XPM */
static char const* nw_xpm[] = {
"32 32 46 1",
" 	c None",
".	c #020202",
"+	c #2A2A2A",
"@	c #2B2B2B",
"#	c #1D1D1D",
"$	c #090909",
"%	c #000000",
"&	c #535353",
"*	c #FFFFFF",
"=	c #C0C0C0",
"-	c #5A5A5A",
";	c #C2C2C2",
">	c #FAFAFA",
",	c #2E2E2E",
"'	c #1A1A1A",
")	c #0F0F0F",
"!	c #080808",
"~	c #F2F2F2",
"{	c #F3F3F3",
"]	c #070707",
"^	c #EEEEEE",
"/	c #B7B7B7",
"(	c #060606",
"_	c #040404",
":	c #CCCCCC",
"<	c #0C0C0C",
"[	c #595959",
"}	c #F4F4F4",
"|	c #464646",
"1	c #E1E1E1",
"2	c #F5F5F5",
"3	c #C9C9C9",
"4	c #696969",
"5	c #E0E0E0",
"6	c #C8C8C8",
"7	c #0B0B0B",
"8	c #3D3D3D",
"9	c #1B1B1B",
"0	c #030303",
"a	c #E3E3E3",
"b	c #F6F6F6",
"c	c #E6E6E6",
"d	c #212121",
"e	c #4E4E4E",
"f	c #3C3C3C",
"g	c #252525",
"                                ",
"                                ",
"                                ",
"                                ",
"                                ",
"                                ",
"       .+@@@@@@@@@@@@@@@#$      ",
"      %&****************=%      ",
"      %-****************;%      ",
"      %-*>,''''''''''''')!      ",
"      %-*~%%%%%%%%%%%%%%        ",
"      %-*{%                     ",
"      %-*{%  %%%%%%%%%%         ",
"      %-*{%  ]^^^^^^/(_         ",
"      %-*{%  !*****:<_          ",
"      %[*}%  !*****|.           ",
"      %-*}%  !*****1#]          ",
"      %-*}%  !******1#]         ",
"      %[*2%  !*342***5'(        ",
"      %[*2%  !67.82***59]       ",
"      %[*2%  07_ (82***59!      ",
"      %[*2%  %_   (82**a#(      ",
"      %[*b%        (82cd]       ",
"      %e^5%         (fg]        ",
"       0%%]          (]         ",
"                                ",
"                                ",
"                                ",
"                                ",
"                                ",
"                                ",
"                                "};
