/* XPM */
static char const* nwse_xpm[] = {
"32 32 44 1",
" 	c None",
".	c #080808",
"+	c #060606",
"@	c #050505",
"#	c #020202",
"$	c #0A0A0A",
"%	c #656565",
"&	c #AAAAAA",
"*	c #A9A9A9",
"=	c #2B2B2B",
"-	c #040404",
";	c #979797",
">	c #FFFFFF",
",	c #FEFEFE",
"'	c #6C6C6C",
")	c #030303",
"!	c #A6A6A6",
"~	c #000000",
"{	c #F1F1F1",
"]	c #343434",
"^	c #070707",
"/	c #959595",
"(	c #DDDDDD",
"_	c #6B6B6B",
":	c #171717",
"<	c #DCDCDC",
"[	c #333333",
"}	c #212121",
"|	c #1F1F1F",
"1	c #090909",
"2	c #414141",
"3	c #BEBEBE",
"4	c #8A8A8A",
"5	c #F6F6F6",
"6	c #C7C7C7",
"7	c #161616",
"8	c #DBDBDB",
"9	c #010101",
"0	c #757575",
"a	c #3A3A3A",
"b	c #F4F4F4",
"c	c #121212",
"d	c #A1A1A1",
"e	c #858585",
"                                ",
"                                ",
"                                ",
"                                ",
"                                ",
"                                ",
"                                ",
"       .++++++++@#              ",
"       $%&&&&&*=-               ",
"       $;>>>>,')                ",
"       $;>>>>!~                 ",
"       $;>>>>{].                ",
"       $;>>>>>{]^               ",
"       $;,/(>>>{].     ~        ",
"       $;_~:<>>>{[^   ^~        ",
"       $}- @:<>>>{]. ^|~        ",
"       1-   +:<>>>{[~23~        ",
"             +:<>>>{456~        ",
"              +78>>>>>6~        ",
"               +7<>>>>6~        ",
"                90>>>>6~        ",
"               ^ab>>>>6~        ",
"              ^cd&&&&&e~        ",
"              -+++++++++        ",
"                                ",
"                                ",
"                                ",
"                                ",
"                                ",
"                                ",
"                                ",
"                                "};
