/* XPM */
static char const* pointer_xpm[] = {
"32 32 60 1",
" 	c None",
".	c #050505",
"+	c #000000",
"@	c #040404",
"#	c #C2C2C2",
"$	c #ADADAD",
"%	c #F7F7F7",
"&	c #E4E4E4",
"*	c #E3E3E3",
"=	c #131313",
"-	c #4B4B4B",
";	c #060606",
">	c #030303",
",	c #010101",
"'	c #989898",
")	c #FFFFFF",
"!	c #3D3D3D",
"~	c #020202",
"{	c #686868",
"]	c #151515",
"^	c #414141",
"/	c #1A1A1A",
"(	c #E5E5E5",
"_	c #B2B2B2",
":	c #646464",
"<	c #9C9C9C",
"[	c #242424",
"}	c #0F0F0F",
"|	c #757575",
"1	c #F9F9F9",
"2	c #484848",
"3	c #FEFEFE",
"4	c #9D9D9D",
"5	c #F3F3F3",
"6	c #ECECEC",
"7	c #B7B7B7",
"8	c #E1E1E1",
"9	c #B6B6B6",
"0	c #070707",
"a	c #E6E6E6",
"b	c #F4F4F4",
"c	c #F8F8F8",
"d	c #1D1D1D",
"e	c #6E6E6E",
"f	c #AEAEAE",
"g	c #F0F0F0",
"h	c #3E3E3E",
"i	c #D4D4D4",
"j	c #2F2F2F",
"k	c #838383",
"l	c #8A8A8A",
"m	c #161616",
"n	c #8F8F8F",
"o	c #C9C9C9",
"p	c #C5C5C5",
"q	c #090909",
"r	c #626262",
"s	c #979797",
"t	c #CCCCCC",
"u	c #434343",
"                                ",
"                                ",
"                                ",
"                                ",
"                                ",
"                                ",
"                                ",
"           .++@                 ",
"           +#$+                 ",
"           +%&+                 ",
"           +%*+                 ",
"           +%*+                 ",
"           +%*++@               ",
"           +%*+=-++;>           ",
"     +,+   +%*+')!~{]@++        ",
"     +^/~  +%(+_):!)<+[}.       ",
"     >|12@ +%345)6*)7+89+       ",
"     +0a6}++b)))))))c9))d+      ",
"      >e)f>+g)))))))))))h+      ",
"      +;()i7))))))))))))j+      ",
"       >k)))))))))))))))d+      ",
"       ~[3))))))))))))))d+      ",
"        +l))))))))))))))m+      ",
"        +,n))))))))))))o+       ",
"         ++k))))))))))pq.       ",
"          +,8)))))))))r.        ",
"           +stttttttttu,        ",
"           @++++++++++++        ",
"                                ",
"                                ",
"                                ",
"                                "};
