/* XPM */
static char const* s_xpm[] = {
"32 32 35 1",
" 	c None",
".	c #000000",
"+	c #181818",
"@	c #CCCCCC",
"#	c #525252",
"$	c #010101",
"%	c #1E1E1E",
"&	c #FFFFFF",
"*	c #676767",
"=	c #080808",
"-	c #1A1A1A",
";	c #535353",
">	c #8F8F8F",
",	c #0E0E0E",
"'	c #040404",
")	c #B2B2B2",
"!	c #E1E1E1",
"~	c #1C1C1C",
"{	c #060606",
"]	c #020202",
"^	c #050505",
"/	c #BCBCBC",
"(	c #E4E4E4",
"_	c #1B1B1B",
":	c #3B3B3B",
"<	c #3D3D3D",
"[	c #9C9C9C",
"}	c #CBCBCB",
"|	c #3F3F3F",
"1	c #0A0A0A",
"2	c #0C0C0C",
"3	c #4E4E4E",
"4	c #EEEEEE",
"5	c #464646",
"6	c #070707",
"                                ",
"                                ",
"                                ",
"                                ",
"                                ",
"                                ",
"                                ",
"                                ",
"             ......             ",
"             +@@@#$             ",
"             %&&&*$             ",
"             %&&&*$             ",
"             %&&&*$             ",
"             %&&&*$             ",
"             %&&&*$             ",
"             %&&&*$             ",
"            .%&&&*$             ",
"         .=--;&&&>--,..         ",
"          ')&&&&&&&!~{          ",
"          ]')&&&&&!~{           ",
"           ]')&&&!~{            ",
"            .^/&(_$...          ",
"      ]:<<<<<<[&}|<<<<<<1       ",
"      2&&&&&&&&&&&&&&&&&3.      ",
"      1444444444444444445.      ",
"      6.................'       ",
"                                ",
"                                ",
"                                ",
"                                ",
"                                ",
"                                "};
