/* XPM */
static char const* se_xpm[] = {
"32 32 44 1",
" 	c None",
".	c #020202",
"+	c #000000",
"@	c #070707",
"#	c #1C1C1C",
"$	c #171717",
"%	c #050505",
"&	c #9A9A9A",
"*	c #161616",
"=	c #060606",
"-	c #6D6D6D",
";	c #FFFFFF",
">	c #E2E2E2",
",	c #040404",
"'	c #B4B4B4",
")	c #DBDBDB",
"!	c #A7A7A7",
"~	c #090909",
"{	c #444444",
"]	c #F7F7F7",
"^	c #2F2F2F",
"/	c #858585",
"(	c #949494",
"_	c #DFDFDF",
":	c #A9A9A9",
"<	c #6C6C6C",
"[	c #424242",
"}	c #F6F6F6",
"|	c #F8F8F8",
"1	c #C1C1C1",
"2	c #6B6B6B",
"3	c #E3E3E3",
"4	c #838383",
"5	c #494949",
"6	c #BBBBBB",
"7	c #030303",
"8	c #6A6A6A",
"9	c #0B0B0B",
"0	c #555555",
"a	c #B5B5B5",
"b	c #343434",
"c	c #2D2D2D",
"d	c #CCCCCC",
"e	c #080808",
"                                ",
"                                ",
"                                ",
"                                ",
"                                ",
"                                ",
"                                ",
"         .+@          @#$%      ",
"        .%&*=        @-;>+      ",
"       .,';)*=     . @-;>+      ",
"       +!;;;)*=   .~ @-;>+      ",
"       %{];;;)$= .^~ @-;>+      ",
"        %{];;;)*+/(~ @-;>+      ",
"         %{];;;_:;(~ @<;>+      ",
"          %[};;;;;(~ @-;>+      ",
"           %{|;;;;(~ =<;>+      ",
"            +1;;;;(~ =2;3+      ",
"           .4;;;;;(~ =<;>+      ",
"          .5666666-~ =2;3+      ",
"         7+++++++++= =2;3+      ",
"                     =2;>+      ",
"        +++++++++++++.8;3+      ",
"       900000000000000a;3+      ",
"       b;;;;;;;;;;;;;;;;>+      ",
"       c;;;;;;;;;;;;;;;;d+      ",
"       .+++++++++++++++++e      ",
"                                ",
"                                ",
"                                ",
"                                ",
"                                ",
"                                "};
