/* XPM */
static char const* sw_xpm[] = {
"32 32 44 1",
" 	c None",
".	c #080808",
"+	c #000000",
"@	c #030303",
"#	c #D5D5D5",
"$	c #FFFFFF",
"%	c #757575",
"&	c #090909",
"*	c #070707",
"=	c #7C7C7C",
"-	c #020202",
";	c #D7D7D7",
">	c #797979",
",	c #C1C1C1",
"'	c #A3A3A3",
")	c #787878",
"!	c #9D9D9D",
"~	c #0B0B0B",
"{	c #1D1D1D",
"]	c #FEFEFE",
"^	c #6A6A6A",
"/	c #040404",
"(	c #898989",
"_	c #707070",
":	c #010101",
"<	c #696969",
"[	c #777777",
"}	c #8E8E8E",
"|	c #C5C5C5",
"1	c #D8D8D8",
"2	c #6C6C6C",
"3	c #767676",
"4	c #C7C7C7",
"5	c #DDDDDD",
"6	c #525252",
"7	c #060606",
"8	c #ABABAB",
"9	c #2E2E2E",
"0	c #2D2D2D",
"a	c #3E3E3E",
"b	c #CECECE",
"c	c #3D3D3D",
"d	c #0A0A0A",
"e	c #1A1A1A",
"                                ",
"                                ",
"                                ",
"                                ",
"                                ",
"                                ",
"                                ",
"     .+++          @+           ",
"     +#$%&        @*=-          ",
"     +;$>&       @.,$'-         ",
"     +;$)& &@   @*,$$$!+        ",
"     +;$)& ~{@ @.,$$$]^/        ",
"     +;$)& ~(_:*,$$$]<@         ",
"     +;$[& ~($}|$$$]^/          ",
"     +1$[& ~($$$$$]2/           ",
"     +1$3* ~($$$$]2/            ",
"     +1$3& ~($$$$4++            ",
"     +1$3& ~($$$$$[@            ",
"     +1$3* ~[5555556@           ",
"     +1$3& 7+++++++++-          ",
"     +1$%*                      ",
"     +1$%@+  ++++++++++         ",
"     +1$890000000000000*        ",
"     +1$$$$$$$$$$$$$$$$a+       ",
"     +b$$$$$$$$$$$$$$$$c+       ",
"     .deeeeeeeeeeeeeeee-        ",
"       ++++++++++++++++         ",
"                                ",
"                                ",
"                                ",
"                                ",
"                                "};
