/* XPM */
static char const* text_xpm[] = {
"32 32 22 1",
" 	c None",
".	c #151515",
"+	c #464646",
"@	c #0A0A0A",
"#	c #555555",
"$	c #FFFFFF",
"%	c #282828",
"&	c #121212",
"*	c #141414",
"=	c #4C4C4C",
"-	c #232323",
";	c #171717",
">	c #0F0F0F",
",	c #434343",
"'	c #202020",
")	c #1F1F1F",
"!	c #888888",
"~	c #6B6B6B",
"{	c #090909",
"]	c #101010",
"^	c #191919",
"/	c #0C0C0C",
"                                ",
"                                ",
"                                ",
"                                ",
"                                ",
"            .+++++@             ",
"            #$$$$$%             ",
"            &*=$-;>             ",
"              ,$'               ",
"              ,$'               ",
"              ,$'               ",
"              ,$'               ",
"              ,$'               ",
"              ,$'               ",
"              ,$'               ",
"              ,$'               ",
"              ,$'               ",
"              ,$'               ",
"              ,$'               ",
"              ,$'               ",
"              ,$)               ",
"            *,!$~,{             ",
"            #$$$$$%             ",
"            ]^^^^^/             ",
"                                ",
"                                ",
"                                ",
"                                ",
"                                ",
"                                ",
"                                ",
"                                "};
