/* XPM */
static char const* w_xpm[] = {
"32 32 41 1",
" 	c None",
".	c #0C0C0C",
"+	c #080808",
"@	c #020202",
"#	c #888888",
"$	c #999999",
"%	c #1F1F1F",
"&	c #000000",
"*	c #ECECEC",
"=	c #FFFFFF",
"-	c #434343",
";	c #040404",
">	c #070707",
",	c #3B3B3B",
"'	c #171717",
")	c #383838",
"!	c #F3F3F3",
"~	c #1D1D1D",
"{	c #F5F5F5",
"]	c #212121",
"^	c #060606",
"/	c #0A0A0A",
"(	c #4F4F4F",
"_	c #C9C9C9",
":	c #AAAAAA",
"<	c #939393",
"[	c #FAFAFA",
"}	c #DDDDDD",
"|	c #737373",
"1	c #7A7A7A",
"2	c #F7F7F7",
"3	c #EEEEEE",
"4	c #CECECE",
"5	c #757575",
"6	c #2D2D2D",
"7	c #010101",
"8	c #717171",
"9	c #BABABA",
"0	c #CCCCCC",
"a	c #313131",
"b	c #090909",
"                                ",
"                                ",
"                                ",
"                                ",
"                                ",
"                                ",
"      ..+                       ",
"     @#$%                       ",
"     &*=-&                      ",
"     &*=-&   ;                  ",
"     &*=-&  >&                  ",
"     &*=-& >,'&                 ",
"     &*=-&+)!~&                 ",
"     &*=-&,{=]^///////>         ",
"     &*=(,{==_:::::::<&         ",
"     &*=![===========}&         ",
"     &*==============}&         ",
"     &*=|1===233333334&         ",
"     &*=-&5==6&&&&&&&&7         ",
"     &*=-&;5=~&                 ",
"     &*=-& ;8~&                 ",
"     &*=-&  ;7&                 ",
"     &*=-&   @                  ",
"     &*=-&                      ",
"     &90a&                      ",
"     /7&b                       ",
"                                ",
"                                ",
"                                ",
"                                ",
"                                ",
"                                "};
