/* XPM */
static char const* wait_xpm[] = {
"32 32 121 2",
"  	c None",
". 	c #2A2A2A",
"+ 	c #272727",
"@ 	c #292929",
"# 	c #000000",
"$ 	c #161616",
"% 	c #444444",
"& 	c #424242",
"* 	c #070707",
"= 	c #1C1C1C",
"- 	c #999999",
"; 	c #FFFFFF",
"> 	c #5B5B5B",
", 	c #191919",
"' 	c #0A0A0A",
") 	c #222222",
"! 	c #020202",
"~ 	c #1F1F1F",
"{ 	c #4B4B4B",
"] 	c #AAAAAA",
"^ 	c #131313",
"/ 	c #363636",
"( 	c #2F2F2F",
"_ 	c #646464",
": 	c #090909",
"< 	c #616161",
"[ 	c #F8F8F8",
"} 	c #D2D2D2",
"| 	c #EEEEEE",
"1 	c #060606",
"2 	c #5D5D5D",
"3 	c #7C7C7C",
"4 	c #F4F4F4",
"5 	c #F7F7F7",
"6 	c #8F8F8F",
"7 	c #909090",
"8 	c #030303",
"9 	c #4F4F4F",
"0 	c #2C2C2C",
"a 	c #0D0D0D",
"b 	c #797979",
"c 	c #F6F6F6",
"d 	c #171717",
"e 	c #FDFDFD",
"f 	c #818181",
"g 	c #050505",
"h 	c #D3D3D3",
"i 	c #BEBEBE",
"j 	c #949494",
"k 	c #FAFAFA",
"l 	c #484848",
"m 	c #010101",
"n 	c #A0A0A0",
"o 	c #FBFBFB",
"p 	c #3C3C3C",
"q 	c #3F3F3F",
"r 	c #040404",
"s 	c #ACACAC",
"t 	c #6D6D6D",
"u 	c #0C0C0C",
"v 	c #A4A4A4",
"w 	c #F9F9F9",
"x 	c #151515",
"y 	c #828282",
"z 	c #FCFCFC",
"A 	c #BFBFBF",
"B 	c #D9D9D9",
"C 	c #E7E7E7",
"D 	c #181818",
"E 	c #0E0E0E",
"F 	c #3E3E3E",
"G 	c #F5F5F5",
"H 	c #C5C5C5",
"I 	c #2D2D2D",
"J 	c #7A7A7A",
"K 	c #2E2E2E",
"L 	c #E6E6E6",
"M 	c #9B9B9B",
"N 	c #4A4A4A",
"O 	c #1A1A1A",
"P 	c #323232",
"Q 	c #DADADA",
"R 	c #EDEDED",
"S 	c #A5A5A5",
"T 	c #464646",
"U 	c #777777",
"V 	c #DFDFDF",
"W 	c #C9C9C9",
"X 	c #0F0F0F",
"Y 	c #474747",
"Z 	c #202020",
"` 	c #F3F3F3",
" .	c #888888",
"..	c #DBDBDB",
"+.	c #C0C0C0",
"@.	c #585858",
"#.	c #C1C1C1",
"$.	c #666666",
"%.	c #252525",
"&.	c #ABABAB",
"*.	c #404040",
"=.	c #636363",
"-.	c #E8E8E8",
";.	c #CBCBCB",
">.	c #525252",
",.	c #969696",
"'.	c #212121",
").	c #E3E3E3",
"!.	c #353535",
"~.	c #5E5E5E",
"{.	c #DDDDDD",
"].	c #5A5A5A",
"^.	c #383838",
"/.	c #626262",
"(.	c #111111",
"_.	c #313131",
":.	c #494949",
"<.	c #858585",
"[.	c #4C4C4C",
"}.	c #343434",
"|.	c #757575",
"                                                                ",
"                . + + + + + + + + + + + + + @                   ",
"                # $ % % % % % % % % % % % & * =                 ",
"                # - ; ; ; ; ; ; ; ; ; ; ; ; > ,                 ",
"                * ' ) ) ) ) ) ) ) ) ) ) ) ) ! ~                 ",
"                  @ { ] ] ] ] ] ] ] ] ] ] ^ /                   ",
"                  ( _ ; ; ; ; ; ; ; ; ; ; : >                   ",
"                  ) < ; ; ; ; ; [ } | ; ; 1 >                   ",
"                  ^ 2 ; 3 4 5 6 ^ # 1 7 ; 8                     ",
"                  ! 9 ; 0 a a # # # # b c #                     ",
"                    d e f # # # # # g h i 1                     ",
"                    1 j k l # # # m n o p q                     ",
"                      r s k t m u v w 2 x                       ",
"                        8 y z A B C q D                         ",
"                          E F G H x I                           ",
"                            # } J K                             ",
"                          K a L M * N                           ",
"                        O P Q R ; S a T                         ",
"                      D F 4 ; U V ; W X Y                       ",
"                    Z . ` ; ;  ...; ; +.r @.                    ",
"                    ! #.; ; ; ; ; ; ; ; $.P                     ",
"                    %.; ; ; &.*.=.-.; ; ;.!                     ",
"                  I >.; ; ,.m # # '.).; 5 #                     ",
"                  !.~.; &.8 # # # # %.{.; 8 ].                  ",
"                  ^./.#.x (.(.(.(.(.(.@ L * 2                   ",
"                  _.@.{.{.{.{.{.{.{.{.{.{.' :.                  ",
"                u # # # # # # # # # # # # # # =                 ",
"                # <.| | | | | | | | | | | | [.,                 ",
"                # }.U U U U U U U U U U U |., d                 ",
"                * g 1 1 1 1 1 1 1 1 1 1 1 1 1 :                 ",
"                                                                ",
"                                                                "};
