/* XPM */
static char const* we_xpm[] = {
"32 32 43 1",
" 	c None",
".	c #070707",
"+	c #000000",
"@	c #060606",
"#	c #0A0A0A",
"$	c #080808",
"%	c #2F2F2F",
"&	c #484848",
"*	c #616161",
"=	c #1F1F1F",
"-	c #EEEEEE",
";	c #5A5A5A",
">	c #7E7E7E",
",	c #E3E3E3",
"'	c #323232",
")	c #F0F0F0",
"!	c #FFFFFF",
"~	c #5E5E5E",
"{	c #828282",
"]	c #E2E2E2",
"^	c #1E1E1E",
"/	c #E8E8E8",
"(	c #BBBBBB",
"_	c #F1F1F1",
":	c #1D1D1D",
"<	c #505050",
"[	c #FBFBFB",
"}	c #F2F2F2",
"|	c #343434",
"1	c #525252",
"2	c #F9F9F9",
"3	c #DDDDDD",
"4	c #DEDEDE",
"5	c #FCFCFC",
"6	c #373737",
"7	c #666666",
"8	c #8A8A8A",
"9	c #363636",
"0	c #555555",
"a	c #727272",
"b	c #3A3A3A",
"c	c #040404",
"d	c #050505",
"                                ",
"                                ",
"                                ",
"                                ",
"                                ",
"                                ",
"                                ",
"                                ",
"          .+       @.           ",
"         .++       #+.          ",
"        $%&+       #*=.         ",
"       $%-;+       #>,=.        ",
"      .')!~+++++++++{!]^@       ",
"     .')!!/(((((((((_!!]:.      ",
"    .')!!!!!!!!!!!!!!!!!]:$     ",
"    @<[!!!!!!!!!!!!!!!!!}|.     ",
"     @1[!!23333333345!!}6$      ",
"      @1[!7+++++++++8!}9.       ",
"       @1[;+       $>}6$        ",
"        @<0+       #ab.         ",
"         @c+       #c$          ",
"          d+       ..           ",
"                                ",
"                                ",
"                                ",
"                                ",
"                                ",
"                                ",
"                                ",
"                                ",
"                                ",
"                                "};
